<?xml version="1.0" encoding="iso-8859-1"?>
<!-- Generator: Adobe Illustrator 21.0.0, SVG Export Plug-In . SVG Version: 6.00 Build 0)  -->
<svg xmlns="http://www.w3.org/2000/svg" xmlns:xlink="http://www.w3.org/1999/xlink" version="1.1" id="Capa_1" x="0px" y="0px" viewBox="0 0 512 512" style="enable-background:new 0 0 512 512;" xml:space="preserve" width="512" height="512">
<g>
	<circle style="fill:#FD3019;" cx="256" cy="256" r="256"/>
	<path style="fill:#C91B10;" d="M161.535,404.151l107.52,107.52c128.779-6.469,232.478-108.099,242.2-235.995L351.406,115.828   L161.535,404.151z"/>
	<g>
		<path style="fill:#FEDBAB;" d="M360.661,155.946H151.082V138.07c0-18.694,16.847-33.902,37.555-33.902    c4.434,0,8.831,0.711,12.968,2.081c5.545-3.357,12.068-5.163,18.88-5.163c4.975,0,9.79,0.957,14.211,2.801    c6.189-3.825,13.507-5.883,21.175-5.883s14.987,2.058,21.175,5.883c4.42-1.844,9.236-2.801,14.211-2.801    c6.812,0,13.336,1.806,18.88,5.163c4.136-1.369,8.533-2.081,12.968-2.081c20.708,0,37.555,15.209,37.555,33.902V155.946z"/>
		<path style="fill:#FEC478;" d="M360.661,155.946V138.07c0-18.694-16.847-33.902-37.555-33.902c-4.434,0-8.831,0.711-12.968,2.081    c-5.545-3.357-12.068-5.163-18.88-5.163c-4.975,0-9.79,0.957-14.211,2.801c-6.189-3.825-13.507-5.883-21.175-5.883v57.942H360.661    z"/>
		<path style="fill:#ADACB3;" d="M392.098,352.58h-49.929V210.806h49.929c18.694,0,33.902,15.209,33.902,33.902v73.969    C426,337.371,410.791,352.58,392.098,352.58z M360.661,334.088h31.437c8.497,0,15.41-6.913,15.41-15.41v-73.969    c0-8.497-6.913-15.41-15.41-15.41h-31.437V334.088z"/>
		<path style="fill:#FCBF27;" d="M326.758,413.604H184.985c-18.694,0-33.902-15.209-33.902-33.902V137.454h209.579v242.248    C360.661,398.396,345.452,413.604,326.758,413.604z"/>
		<path style="fill:#FEA832;" d="M255.871,137.454v276.151h70.887c18.694,0,33.902-15.209,33.902-33.902V137.454H255.871z"/>
		<rect x="286.692" y="226.216" style="fill:#FE9922;" width="18.492" height="117.117"/>
		<rect x="206.559" y="226.216" style="fill:#FEA832;" width="18.492" height="117.117"/>
		<path style="fill:#E5E5E5;" d="M318.25,207.448c-18.455,0-36.509-1.667-54.193-3.299c-32.394-2.991-65.891-6.083-101.962,0.939    l-11.013,2.144v-69.779h209.579v66.585l-7.947,1.128C341.073,206.819,329.585,207.448,318.25,207.448z"/>
		<path style="fill:#D9D9D9;" d="M255.871,203.4c2.737,0.247,5.465,0.498,8.185,0.749c17.684,1.633,35.738,3.299,54.193,3.299    c11.335,0,22.823-0.629,34.464-2.281l7.947-1.128v-66.585H255.871V203.4z"/>
	</g>
</g>















</svg>
