<?xml version="1.0" encoding="iso-8859-1"?>
<!-- Generator: Adobe Illustrator 21.0.0, SVG Export Plug-In . SVG Version: 6.00 Build 0)  -->
<svg xmlns="http://www.w3.org/2000/svg" xmlns:xlink="http://www.w3.org/1999/xlink" version="1.1" id="Capa_1" x="0px" y="0px" viewBox="0 0 512 512" style="enable-background:new 0 0 512 512;" xml:space="preserve" width="512" height="512">
<g>
	<circle style="fill:#FEDB41;" cx="256" cy="256" r="256"/>
	<path style="fill:#FEA832;" d="M264.029,511.862c133.51-4.115,241.275-110.444,247.663-243.37L406.819,163.619l-31.944-15.796   l-35-35.823L143.583,391.417L264.029,511.862z"/>
	<g>
		<path style="fill:#ADACB3;" d="M368.563,147.438H323v50.625h45.563c1.551,0,2.813,1.262,2.813,2.813v61.875    c0,1.551-1.262,2.813-2.813,2.813H323v50.625h45.563c29.466,0,53.438-23.972,53.438-53.438v-61.875    C422,171.409,398.028,147.438,368.563,147.438z"/>
		<path style="fill:#E5E5E5;" d="M308.938,400h-144C147.878,400,134,386.122,134,369.063V112h205.875v257.063    C339.875,386.122,325.997,400,308.938,400z"/>
		<path style="fill:#D9D9D9;" d="M236.938,112v288h72c17.059,0,30.938-13.878,30.938-30.938V112H236.938z"/>
		<rect x="261.125" y="178.375" style="fill:#ADACB3;" width="16.875" height="157.5"/>
		<rect x="195.875" y="178.375" style="fill:#C8C6CE;" width="16.875" height="157.5"/>
		<path style="fill:#FEDBAB;" d="M308.938,400h-144C147.878,400,134,386.122,134,369.063v-12.016l6.825-1.329    c35.311-6.875,71.272-3.933,106.05-1.088c29.535,2.416,57.433,4.699,83.377,1.016l9.623-1.366v14.782    C339.875,386.122,325.997,400,308.938,400z"/>
		<rect x="150.875" y="168.25" style="fill:#C8C6CE;" width="172.125" height="16.875"/>
		<path style="fill:#FEC478;" d="M246.875,354.63c-3.302-0.27-6.615-0.541-9.937-0.805V400h72c17.059,0,30.938-13.878,30.938-30.938    V354.28l-9.623,1.366C304.308,359.329,276.41,357.046,246.875,354.63z"/>
		<rect x="236.938" y="168.25" style="fill:#ADACB3;" width="86.063" height="16.875"/>
	</g>
</g>















</svg>
