<?xml version="1.0" encoding="iso-8859-1"?>
<!-- Generator: Adobe Illustrator 21.0.0, SVG Export Plug-In . SVG Version: 6.00 Build 0)  -->
<svg xmlns="http://www.w3.org/2000/svg" xmlns:xlink="http://www.w3.org/1999/xlink" version="1.1" id="Capa_1" x="0px" y="0px" viewBox="0 0 512 512" style="enable-background:new 0 0 512 512;" xml:space="preserve" width="512" height="512">
<g>
	<circle style="fill:#FEDB41;" cx="256" cy="256" r="256"/>
	<path style="fill:#FEA832;" d="M511.917,262.583L369.333,120l-55.135,31l-30.631-31l-55.135,31l-30.631-31L99.171,392   l116.893,116.893C229.078,510.932,242.414,512,256,512C395.184,512,508.425,400.926,511.917,262.583z"/>
	<g>
		<path style="fill:#79D60B;" d="M222.306,263.351H118.162v-75.045l24.505-18.378V120h55.135v49.928l24.505,18.378V263.351z"/>
		<polygon style="fill:#33BC00;" points="222.306,188.306 197.802,169.928 197.802,120 170.234,120 170.234,263.351     222.306,263.351   "/>
		<path style="fill:#79D60B;" d="M308.072,263.351H203.928v-75.045l24.505-18.378V120h55.135v49.928l24.505,18.378V263.351z"/>
		<polygon style="fill:#33BC00;" points="308.072,188.306 283.568,169.928 283.568,120 256,120 256,263.351 308.072,263.351   "/>
		<path style="fill:#79D60B;" d="M393.838,263.351H289.694v-75.045l24.505-18.378V120h55.135v49.928l24.504,18.378V263.351z"/>
		<polygon style="fill:#33BC00;" points="393.838,188.306 369.333,169.928 369.333,120 341.766,120 341.766,263.351     393.838,263.351   "/>
		<path style="fill:#BF6016;" d="M412.829,392H99.171V244.973h313.658V392z"/>
		<rect x="256" y="244.973" style="fill:#994C11;" width="156.829" height="147.027"/>
		<path style="fill:#FFDF82;" d="M196.418,363.023L183.73,303.09l131.851-27.914l12.689,59.933L196.418,363.023z"/>
		<polygon style="fill:#FFBF7A;" points="256,350.409 328.27,335.108 315.581,275.176 256,287.79   "/>
	</g>
</g>















</svg>
