<?xml version="1.0" encoding="iso-8859-1"?>
<!-- Generator: Adobe Illustrator 21.0.0, SVG Export Plug-In . SVG Version: 6.00 Build 0)  -->
<svg xmlns="http://www.w3.org/2000/svg" xmlns:xlink="http://www.w3.org/1999/xlink" version="1.1" id="Capa_1" x="0px" y="0px" viewBox="0 0 512 512" style="enable-background:new 0 0 512 512;" xml:space="preserve" width="512" height="512">
<g>
	<circle style="fill:#0FAC00;" cx="256" cy="256" r="256"/>
	<path style="fill:#098100;" d="M509.131,294.41L301.265,86.544l-97.14,54.64l10.375,10v56.059L173,433.067l78.881,78.881   c1.372,0.022,2.742,0.052,4.119,0.052C384.33,512,490.598,417.572,509.131,294.41z"/>
	<g>
		<path style="fill:#FFDF82;" d="M339,433.067H173V258.075c0-25.051,17.852-46.012,41.5-50.833v-86.809h83v86.809    c23.648,4.82,41.5,25.781,41.5,50.833V433.067z"/>
		<path style="fill:#FFBF7A;" d="M339,258.075c0-25.051-17.852-46.012-41.5-50.833v-86.809H256v312.633h83V258.075z"/>
		<path style="fill:#BF6016;" d="M307.875,141.183h-103.75v-38.042c0-13.348,10.86-24.208,24.208-24.208h55.333    c13.348,0,24.208,10.86,24.208,24.208V141.183z"/>
		<path style="fill:#FCBF27;" d="M256,386.725c-14.141,0-26.982-7.946-33.513-20.058H173v-76.083h45.058    c1.423-19.689,17.897-35.275,37.942-35.275s36.52,15.586,37.942,35.275H339v76.083h-49.487    C282.982,378.779,270.141,386.725,256,386.725z"/>
		<path style="fill:#FEA832;" d="M289.513,366.667H339v-76.083h-45.058c-1.423-19.689-17.897-35.275-37.942-35.275v131.417    C270.141,386.725,282.982,378.779,289.513,366.667z"/>
		<path style="fill:#994C11;" d="M256,141.183h51.875v-38.042c0-13.348-10.86-24.208-24.208-24.208H256V141.183z"/>
	</g>
</g>















</svg>
