<?xml version="1.0" encoding="iso-8859-1"?>
<!-- Generator: Adobe Illustrator 21.0.0, SVG Export Plug-In . SVG Version: 6.00 Build 0)  -->
<svg xmlns="http://www.w3.org/2000/svg" xmlns:xlink="http://www.w3.org/1999/xlink" version="1.1" id="Capa_1" x="0px" y="0px" viewBox="0 0 512 512" style="enable-background:new 0 0 512 512;" xml:space="preserve" width="512" height="512">
<g>
	<circle style="fill:#FD3019;" cx="256" cy="256" r="256"/>
	<path style="fill:#C91B10;" d="M82.64,304.076l205.877,205.877c111.276-14.106,200.267-99.645,219.58-209.212l-96.738-96.738   L82.64,304.076z"/>
	<g>
		<path style="fill:#79D60B;" d="M358.688,322c-4.988,0-9.975-1.384-14.423-4.153l-16.642-10.358c-1.922-1.197-4.407-1.196-6.329,0    l-16.642,10.359c-8.896,5.537-19.949,5.537-28.845,0l-16.643-10.358c-1.952-1.215-4.377-1.215-6.33,0l-16.641,10.358    c-8.896,5.537-19.949,5.537-28.845,0l-16.642-10.358c-1.922-1.197-4.407-1.197-6.33,0l-16.641,10.358    c-8.897,5.537-19.95,5.538-28.846,0l-16.642-10.358c-1.952-1.215-4.377-1.215-6.33,0c-8.54,5.314-18.885,5.571-27.677,0.688    c-8.792-4.884-14.04-13.803-14.04-23.86v-1.335l14.824-58.213C94.238,204.298,112.633,190,133.757,190h244.486    c21.124,0,39.519,14.298,44.732,34.769l14.824,58.213v1.335c0,10.057-5.248,18.976-14.04,23.86    c-8.793,4.884-19.139,4.626-27.677-0.688c-1.953-1.215-4.377-1.215-6.33,0l-16.641,10.358    C368.662,320.616,363.675,322,358.688,322z"/>
		<path style="fill:#33BC00;" d="M422.975,224.769C417.762,204.298,399.367,190,378.243,190H256v116.578    c1.094,0,2.189,0.304,3.164,0.911l16.643,10.358c8.896,5.537,19.949,5.537,28.845,0l16.642-10.359    c1.922-1.196,4.407-1.197,6.329,0l16.642,10.358c4.448,2.768,9.435,4.153,14.423,4.153c4.987,0,9.974-1.384,14.422-4.153    l16.641-10.358c1.953-1.215,4.377-1.215,6.33,0c8.537,5.314,18.884,5.572,27.677,0.688c8.792-4.884,14.04-13.803,14.04-23.86    v-1.335L422.975,224.769z"/>
		<rect x="133.757" y="239.711" style="fill:#0FAC00;" width="244.486" height="21.305"/>
		<rect x="256" y="239.711" style="fill:#098100;" width="122.243" height="21.305"/>
	</g>
</g>















</svg>
