<?xml version="1.0" encoding="iso-8859-1"?>
<!-- Generator: Adobe Illustrator 21.0.0, SVG Export Plug-In . SVG Version: 6.00 Build 0)  -->
<svg xmlns="http://www.w3.org/2000/svg" xmlns:xlink="http://www.w3.org/1999/xlink" version="1.1" id="Capa_1" x="0px" y="0px" viewBox="0 0 512 512" style="enable-background:new 0 0 512 512;" xml:space="preserve" width="512" height="512">
<g>
	<circle style="fill:#FEDB41;" cx="256" cy="256" r="256"/>
	<path style="fill:#FEA832;" d="M213.073,425.381l83.42,83.42c115.07-18.288,204.582-113.241,214.563-230.875L322.407,89.276   l-136.002,3.473l6.79,110.144c0,0,27.11,27.114,27.165,27.171v3.126L213.073,425.381z"/>
	<g>
		<path style="fill:#C8C6CE;" d="M291.64,254.574H220.36v-64.153h71.281V254.574z"/>
		<path style="fill:#ADACB3;" d="M291.64,254.574H256v-64.153h35.64V254.574z"/>
		<path style="fill:#C8C6CE;" d="M290.26,211.806H221.74c-9.731,0-16.602-9.533-13.525-18.764l9.443-28.329    c3.396-10.187,12.929-17.059,23.668-17.059h29.346c10.739,0,20.272,6.872,23.668,17.059l9.443,28.329    C306.861,202.273,299.99,211.806,290.26,211.806z"/>
		<path style="fill:#ADACB3;" d="M303.784,193.042l-9.443-28.329c-3.396-10.188-12.93-17.059-23.668-17.059H256v64.153h34.26    C299.99,211.806,306.861,202.273,303.784,193.042z"/>
		<path style="fill:#E5E5E5;" d="M296.623,211.806h-81.246c-15.494,0-28.764-11.062-31.553-26.304l-8.945-48.9    c-2.863-15.649,1.338-31.633,11.525-43.853c10.187-12.219,25.154-19.228,41.063-19.228h57.066    c15.909,0,30.876,7.008,41.063,19.228c10.187,12.22,14.388,28.203,11.525,43.853l-8.945,48.9    C325.387,200.744,312.117,211.806,296.623,211.806z M227.467,94.906c-9.545,0-18.525,4.205-24.638,11.536    c-6.112,7.332-8.632,16.922-6.915,26.312l8.945,48.9c0.929,5.08,5.353,8.768,10.517,8.768h81.246    c5.165,0,9.588-3.688,10.518-8.768l8.945-48.9c1.718-9.389-0.803-18.98-6.915-26.312c-6.112-7.332-15.092-11.536-24.638-11.536    H227.467z"/>
		<path style="fill:#BF6016;" d="M266.692,438.478h-21.384c-25.548,0-46.332-20.785-46.332-46.332v-20.322    c0-10.63,2.064-20.999,6.133-30.819c6.049-14.596,6.049-30.672,0-45.267c-4.069-9.821-6.133-20.19-6.133-30.82V233.19h114.049    v31.891c0,10.349-1.779,20.533-5.288,30.27c-5.35,14.845-5.35,31.195,0,46.04c3.509,9.736,5.288,19.921,5.288,30.27v20.486    C313.025,417.694,292.24,438.478,266.692,438.478z"/>
		<path style="fill:#D9D9D9;" d="M328.176,185.502l8.945-48.9c2.863-15.649-1.338-31.633-11.525-43.853    c-10.187-12.219-25.154-19.228-41.063-19.228H256v21.384h28.533c9.545,0,18.525,4.205,24.638,11.536    c6.112,7.332,8.632,16.922,6.915,26.312l-8.945,48.9c-0.93,5.08-5.353,8.768-10.518,8.768H256v21.384h40.623    C312.117,211.806,325.387,200.744,328.176,185.502z"/>
		<path style="fill:#994C11;" d="M256,438.478h10.692c25.548,0,46.332-20.785,46.332-46.332V371.66    c0-10.349-1.779-20.533-5.288-30.27c-5.35-14.845-5.35-31.195,0-46.04c3.509-9.736,5.288-19.921,5.288-30.27V233.19H256V438.478z"/>
	</g>
</g>















</svg>
