<?xml version="1.0" encoding="iso-8859-1"?>
<!-- Generator: Adobe Illustrator 21.0.0, SVG Export Plug-In . SVG Version: 6.00 Build 0)  -->
<svg xmlns="http://www.w3.org/2000/svg" xmlns:xlink="http://www.w3.org/1999/xlink" version="1.1" id="Capa_1" x="0px" y="0px" viewBox="0 0 512 512" style="enable-background:new 0 0 512 512;" xml:space="preserve" width="512" height="512">
<g>
	<circle style="fill:#0FAC00;" cx="256" cy="256" r="256"/>
	<path style="fill:#098100;" d="M279.4,510.925C409.815,499.104,512,389.495,512,256c0-10.497-0.647-20.842-1.874-31.008   l-91.721-91.721L132.927,236.454l-34.547-0.537l31.693,31.473l-36.479,34.892l67.88,67V393L279.4,510.925z"/>
	<g>
		<path style="fill:#3C3A41;" d="M112.627,302.282H93.595v-12.688c0-12.243,9.961-22.204,22.204-22.204h27.279v19.032h-27.279    c-1.749,0-3.172,1.423-3.172,3.172V302.282z"/>
		<path style="fill:#994C11;" d="M389.857,393H161.475v-77.396h228.382V393z"/>
		<path style="fill:#FEA832;" d="M275.666,342.19c-45.106,0-90.213-4.266-135.003-12.798l-7.735-1.473V133.271l7.735-1.473    c89.582-17.064,180.425-17.064,270.007,0l7.735,1.473v194.648l-7.735,1.473C365.879,337.924,320.772,342.19,275.666,342.19z"/>
		<path style="fill:#FE9922;" d="M132.927,230.595v97.324l7.735,1.473c44.791,8.532,89.897,12.798,135.003,12.798    s90.213-4.266,135.003-12.798l7.735-1.473v-97.324H132.927z"/>
		<path style="fill:#FEDB41;" d="M275.666,279.385c-45.106,0-90.213-4.266-135.003-12.798l-7.735-1.473v-69.038l7.735-1.473    c89.582-17.064,180.425-17.064,270.007,0l7.735,1.473v69.038l-7.735,1.473C365.879,275.119,320.772,279.385,275.666,279.385z"/>
		
			<rect x="114.213" y="217.502" transform="matrix(0.5637 -0.8259 0.8259 0.5637 -145.6521 207.6356)" style="fill:#E61E15;" width="19.032" height="48.389"/>
		<path style="fill:#FCBF27;" d="M132.927,230.595v34.519l7.735,1.473c44.791,8.532,89.897,12.798,135.003,12.798    s90.213-4.266,135.003-12.798l7.735-1.473v-34.519H132.927z"/>
		<path style="fill:#57555C;" d="M345.45,338.773c6.348-0.621,12.692-1.329,19.032-2.119V124.537    c-6.34-0.79-12.684-1.499-19.032-2.119V338.773z"/>
		<path style="fill:#57555C;" d="M186.851,336.653c6.34,0.79,12.684,1.499,19.032,2.119V122.417    c-6.348,0.621-12.692,1.329-19.032,2.119V336.653z"/>
		<path style="fill:#3C3A41;" d="M205.883,230.595h-19.032v106.058c0.002,0,0.005,0.001,0.007,0.001    c3.119,0.389,6.24,0.757,9.361,1.105c0.082,0.009,0.164,0.019,0.246,0.028c3.137,0.349,6.274,0.678,9.413,0.985    c0.002,0,0.004,0,0.005,0.001V230.595z"/>
		<path style="fill:#3C3A41;" d="M364.481,230.595H345.45v108.178c0.002,0,0.003,0,0.005-0.001c3.138-0.307,6.276-0.636,9.413-0.985    c0.082-0.009,0.164-0.018,0.246-0.028c3.121-0.348,6.241-0.716,9.361-1.105c0.002,0,0.005,0,0.007-0.001V230.595z"/>
	</g>
</g>















</svg>
