<?xml version="1.0" encoding="iso-8859-1"?>
<!-- Generator: Adobe Illustrator 21.0.0, SVG Export Plug-In . SVG Version: 6.00 Build 0)  -->
<svg xmlns="http://www.w3.org/2000/svg" xmlns:xlink="http://www.w3.org/1999/xlink" version="1.1" id="Capa_1" x="0px" y="0px" viewBox="0 0 512 512" style="enable-background:new 0 0 512 512;" xml:space="preserve" width="512" height="512">
<g>
	<circle style="fill:#0FAC00;" cx="256" cy="256" r="256"/>
	<path style="fill:#098100;" d="M495.395,346.839c-54.135-54.139-146.29-146.297-146.531-146.528   c-5.754-6.015-29.008-9.772-29.008-9.772c-0.144-0.143-72.442-72.417-72.442-72.417l-46.295,65.526l16.408,16v18.212   c-7.329,2.599-13.146,8.416-15.745,15.745l-47.419,25.84v9.188l83,82.688L109,403l105.66,105.66   c13.459,2.185,27.263,3.34,41.34,3.34C365.392,512,458.742,443.378,495.395,346.839z"/>
	<g>
		<path style="fill:#57555C;" d="M171.59,268.633h-17.227v-9.188c0-14.248,11.591-25.84,25.84-25.84h28.711v17.227h-28.711    c-4.75,0-8.613,3.864-8.613,8.613V268.633z"/>
		<rect x="217.527" y="175.035" style="fill:#ADACB3;" width="17.227" height="49.957"/>
		<path style="fill:#FCBF27;" d="M271.504,268.059h-45.363c-14.248,0-25.84-11.592-25.84-25.84s11.591-25.84,25.84-25.84h45.363    V268.059z"/>
		<path style="fill:#FEA832;" d="M200.301,242.219c0,14.248,11.591,25.84,25.84,25.84h45.363v-25.84H200.301z"/>
		<path style="fill:#57555C;" d="M338.227,368.547h-64.54l7.067-91.875h50.406L338.227,368.547z"/>
		<polygon style="fill:#3C3A41;" points="331.16,276.672 305.957,276.672 305.957,368.547 338.227,368.547   "/>
		<path style="fill:#BF6016;" d="M403,403H109v-51.68h294V403z"/>
		<path style="fill:#C8C6CE;" d="M326.055,293.898h-40.195c-17.414,0-31.582-14.168-31.582-31.582v-40.195    c0-17.414,14.168-31.582,31.582-31.582h40.195c17.414,0,31.582,14.168,31.582,31.582v40.195    C357.637,279.731,343.469,293.898,326.055,293.898z"/>
		<path style="fill:#57555C;" d="M251.162,183.648h-50.043l-4.232-42.323c-0.825-8.249,1.892-16.505,7.455-22.652    c5.563-6.147,13.508-9.673,21.799-9.673s16.236,3.525,21.799,9.673c5.563,6.147,8.28,14.403,7.455,22.652L251.162,183.648z"/>
		<rect x="256" y="351.32" style="fill:#994C11;" width="147" height="51.68"/>
		<path style="fill:#ADACB3;" d="M305.957,293.898h20.098c17.414,0,31.582-14.168,31.582-31.582v-40.195    c0-17.414-14.168-31.582-31.582-31.582h-20.098V293.898z"/>
		<path style="fill:#3C3A41;" d="M247.94,118.673c-5.563-6.147-13.508-9.673-21.799-9.673v74.648h25.022l4.232-42.323    C256.219,133.076,253.502,124.82,247.94,118.673z"/>
	</g>
</g>















</svg>
