<?xml version="1.0" encoding="iso-8859-1"?>
<!-- Generator: Adobe Illustrator 21.0.0, SVG Export Plug-In . SVG Version: 6.00 Build 0)  -->
<svg xmlns="http://www.w3.org/2000/svg" xmlns:xlink="http://www.w3.org/1999/xlink" version="1.1" id="Capa_1" x="0px" y="0px" viewBox="0 0 512 512" style="enable-background:new 0 0 512 512;" xml:space="preserve" width="512" height="512">
<g>
	<circle style="fill:#FD3019;" cx="256" cy="256" r="256"/>
	<path style="fill:#C91B10;" d="M511.415,273.153L376.56,138.298L256,424.469l76.046,76.046   C431.065,469.753,504.311,380.494,511.415,273.153z"/>
	<g>
		<path style="fill:#FEDB41;" d="M256,424.469L122,153.644l4.081-4.934c32.161-38.881,79.515-61.18,129.919-61.18    s97.758,22.299,129.919,61.18l4.081,4.934L256,424.469z"/>
		<path style="fill:#FCBF27;" d="M385.919,148.711C353.758,109.83,306.404,87.531,256,87.531v336.939l134-270.825L385.919,148.711z"/>
		<path style="fill:#FCBF27;" d="M226.376,233.676c-16.335,0-29.624-13.289-29.624-29.624s13.289-29.624,29.624-29.624    c16.334,0,29.623,13.289,29.623,29.624S242.71,233.676,226.376,233.676z"/>
		<path style="fill:#FEA832;" d="M289.574,319.256c-16.335,0-29.624-13.289-29.624-29.624s13.289-29.624,29.624-29.624    c16.335,0,29.624,13.289,29.624,29.624S305.909,319.256,289.574,319.256z"/>
		<circle style="fill:#FEA832;" cx="300.107" cy="228.409" r="9.875"/>
		<circle style="fill:#FCBF27;" cx="230.984" cy="267.907" r="9.875"/>
		<circle style="fill:#FEA832;" cx="285.624" cy="189.569" r="9.875"/>
		<circle style="fill:#FCBF27;" cx="246.125" cy="337.688" r="9.875"/>
		<path style="fill:#FCBF27;" d="M255.999,146.779c-16.335,0-29.624-13.289-29.624-29.624s13.289-29.624,29.624-29.624    s29.624,13.289,29.624,29.624S272.334,146.779,255.999,146.779z"/>
		<circle style="fill:#FCBF27;" cx="193.461" cy="152.703" r="9.875"/>
		<circle style="fill:#FEA832;" cx="321.831" cy="165.211" r="9.875"/>
		<path style="fill:#FEA832;" d="M256,146.779c16.334-0.001,29.623-13.29,29.623-29.624S272.334,87.532,256,87.532V146.779z"/>
	</g>
</g>















</svg>
