<?xml version="1.0" encoding="iso-8859-1"?>
<!-- Generator: Adobe Illustrator 21.0.0, SVG Export Plug-In . SVG Version: 6.00 Build 0)  -->
<svg xmlns="http://www.w3.org/2000/svg" xmlns:xlink="http://www.w3.org/1999/xlink" version="1.1" id="Capa_1" x="0px" y="0px" viewBox="0 0 512 512" style="enable-background:new 0 0 512 512;" xml:space="preserve" width="512" height="512">
<g>
	<circle style="fill:#FD3019;" cx="256" cy="256" r="256"/>
	<path style="fill:#C91B10;" d="M278.382,511.015c111.902-9.695,203.196-91.365,227.342-198.485L336.436,143.241l-31.296-2.863   c-0.148-0.144-13.09-13.11-13.437-13.435c-0.915-0.923-131.429,131.775-131.429,131.775l16.978,16.977l1.145,8.016l-16.435,110.885   L278.382,511.015z"/>
	<g>
		<path style="fill:#FE9922;" d="M298.912,412.813v-18.467c11.57,0,20.983-9.46,20.983-21.087c0-8.284-6.706-15.023-14.949-15.023    c-5.581,0-10.122,4.563-10.122,10.171c0,3.469,2.808,6.291,6.26,6.291v18.467c-13.584,0-24.636-11.106-24.636-24.758    c0-15.791,12.784-28.638,28.498-28.638c18.376,0,33.325,15.023,33.325,33.49C338.271,395.069,320.614,412.813,298.912,412.813z"/>
		<path style="fill:#994C11;" d="M349.347,412.813h-99.844v-76.946h18.376v58.479h81.468c11.821,0,21.439-9.665,21.439-21.545    c0-5.091-4.122-9.234-9.188-9.234c-14.861,0-26.952-12.15-26.952-27.085v-3.078c0-14.935,12.09-27.085,26.952-27.085    c6.08,0,11.026-4.971,11.026-11.08H391c0,16.292-13.19,29.547-29.402,29.547c-4.729,0-8.576,3.866-8.576,8.618v3.078    c0,4.752,3.847,8.618,8.576,8.618c15.199,0,27.564,12.427,27.564,27.701C389.162,394.863,371.302,412.813,349.347,412.813z"/>
		<rect x="249.504" y="335.866" style="fill:#BF6016;" width="9.188" height="76.946"/>
		<g>
			<path style="fill:#098100;" d="M264.817,343.253h-12.251c-25.332,0-45.94-20.711-45.94-46.168v-15.389h104.132v15.389     C310.757,322.542,290.149,343.253,264.817,343.253z"/>
			<path style="fill:#045901;" d="M258.692,281.696v61.557h6.125c25.332,0,45.94-20.711,45.94-46.168v-15.389H258.692z"/>
			<g>
				<path style="fill:#91DC59;" d="M212.17,221.373c-9.674,0.001-18.423-3.501-24.944-10.054      c-7.356-7.392-10.847-17.637-9.832-28.847l3.554-39.23l39.037-3.571l0,0c11.152-1.023,21.349,2.488,28.705,9.88      c7.356,7.392,10.847,17.637,9.832,28.847c-1.993,21.998-20.701,40.799-42.591,42.802      C214.664,221.315,213.409,221.373,212.17,221.373z"/>
				<path style="fill:#79D60B;" d="M185.218,268.772c-9.674,0.001-18.423-3.501-24.944-10.054      c-7.356-7.392-10.847-17.637-9.832-28.847l3.554-39.23l39.037-3.571l0,0c11.152-1.022,21.349,2.488,28.705,9.88      c7.356,7.392,10.847,17.637,9.832,28.847c-1.993,21.998-20.701,40.799-42.591,42.802      C187.713,268.714,186.457,268.772,185.218,268.772z"/>
				<path style="fill:#C2FC3A;" d="M212.17,309.399c-9.674,0.001-18.423-3.501-24.944-10.054      c-7.356-7.392-10.847-17.637-9.832-28.847l3.554-39.23l39.037-3.571l0,0c11.152-1.022,21.349,2.488,28.705,9.88      c7.356,7.392,10.847,17.637,9.832,28.847c-1.993,21.998-20.701,40.799-42.591,42.802      C214.664,309.342,213.409,309.399,212.17,309.399z"/>
				<path style="fill:#64C37C;" d="M305.213,221.373c-1.24,0-2.494-0.057-3.761-0.173c-21.89-2.003-40.598-20.803-42.591-42.802      c-1.016-11.21,2.476-21.455,9.832-28.847c7.356-7.392,17.554-10.901,28.705-9.88l39.037,3.571l3.554,39.23      c1.016,11.21-2.476,21.455-9.832,28.847C323.637,217.872,314.886,221.373,305.213,221.373z"/>
				<path style="fill:#33BC00;" d="M332.165,268.772c-1.24,0-2.494-0.057-3.761-0.173c-21.89-2.003-40.598-20.803-42.591-42.802      c-1.016-11.21,2.476-21.455,9.832-28.847c7.356-7.392,17.553-10.901,28.705-9.88l39.037,3.571l3.554,39.23      c1.016,11.21-2.476,21.455-9.832,28.847C350.589,265.27,341.838,268.772,332.165,268.772z"/>
				<path style="fill:#91DC59;" d="M305.213,309.399c-1.24,0-2.494-0.057-3.761-0.173c-21.89-2.003-40.598-20.803-42.591-42.802      c-1.016-11.21,2.476-21.455,9.832-28.847c7.356-7.392,17.554-10.901,28.705-9.88l39.037,3.571l3.554,39.23      c1.016,11.21-2.476,21.455-9.832,28.847C323.637,305.898,314.886,309.399,305.213,309.399z"/>
				<path style="fill:#C2FC3A;" d="M258.692,189.418c-10.838,0-21.672-3.514-30.117-10.545c-8.624-7.18-13.374-16.876-13.374-27.304      c0-10.427,4.749-20.124,13.373-27.304l30.117-25.073l30.117,25.073c8.624,7.18,13.373,16.876,13.373,27.304      c0,10.427-4.749,20.124-13.373,27.304C280.366,185.902,269.527,189.418,258.692,189.418z"/>
				<path style="fill:#91DC59;" d="M288.809,124.266l-30.117-25.073v90.225c10.835,0,21.674-3.516,30.117-10.545      c8.624-7.18,13.373-16.876,13.373-27.304C302.182,141.142,297.433,131.446,288.809,124.266z"/>
				<path style="fill:#91DC59;" d="M258.692,244.819c-10.838,0-21.672-3.514-30.117-10.545c-8.624-7.18-13.374-16.876-13.374-27.304      c0-10.427,4.749-20.124,13.373-27.304l30.117-25.073l30.117,25.073c8.624,7.18,13.373,16.876,13.373,27.304      c0,10.427-4.749,20.124-13.373,27.304C280.366,241.303,269.527,244.819,258.692,244.819z"/>
				<path style="fill:#64C37C;" d="M288.809,179.667l-30.117-25.073v90.225c10.835,0,21.674-3.516,30.117-10.545      c8.624-7.18,13.373-16.876,13.373-27.304C302.182,196.544,297.433,186.847,288.809,179.667z"/>
				<path style="fill:#79D60B;" d="M258.692,300.221c-10.838,0-21.672-3.514-30.117-10.545c-8.624-7.18-13.374-16.876-13.374-27.304      c0-10.427,4.749-20.124,13.373-27.304l30.117-25.073l30.117,25.073c8.624,7.18,13.373,16.876,13.373,27.304      c0,10.427-4.749,20.124-13.373,27.304C280.366,296.705,269.527,300.221,258.692,300.221z"/>
				<path style="fill:#33BC00;" d="M288.809,235.068l-30.117-25.073v90.225c10.835,0,21.674-3.516,30.117-10.545      c8.624-7.18,13.373-16.876,13.373-27.304C302.182,251.945,297.433,242.248,288.809,235.068z"/>
			</g>
		</g>
		<g>
			<path style="fill:#098100;" d="M205.596,412.821c-13.425,0-26.409-4.383-37.332-12.735     c-13.604-10.402-22.193-25.554-24.186-42.665l-9.185-78.882l78.132,9.288c16.835,2.001,31.777,10.59,42.074,24.184     c10.363,13.683,14.643,30.593,12.051,47.617c-4.14,27.184-25.011,48.26-51.936,52.446     C211.999,412.574,208.784,412.821,205.596,412.821z"/>
			<path style="fill:#0FAC00;" d="M144.034,357.421c1.993,17.111,10.582,32.263,24.186,42.665     c10.923,8.352,23.906,12.735,37.332,12.735c3.188,0,6.402-0.247,9.618-0.747c13.509-2.1,25.493-8.454,34.606-17.697     L134.894,278.926L144.034,357.421z"/>
			<path style="fill:#33BC00;" d="M255.677,387.492l-62.769-63.079l-12.994,13.058l62.787,63.097     C247.649,396.886,252.021,392.479,255.677,387.492z"/>
			<path style="fill:#79D60B;" d="M249.776,394.377l-63.243-63.556l-6.617,6.65l62.767,63.077     C245.2,398.671,247.574,396.611,249.776,394.377z"/>
		</g>
	</g>
</g>















</svg>
