<?xml version="1.0" encoding="iso-8859-1"?>
<!-- Generator: Adobe Illustrator 21.0.0, SVG Export Plug-In . SVG Version: 6.00 Build 0)  -->
<svg xmlns="http://www.w3.org/2000/svg" xmlns:xlink="http://www.w3.org/1999/xlink" version="1.1" id="Capa_1" x="0px" y="0px" viewBox="0 0 512 512" style="enable-background:new 0 0 512 512;" xml:space="preserve" width="512" height="512">
<g>
	<circle style="fill:#FEDB41;" cx="256" cy="256" r="256"/>
	<path style="fill:#FEA832;" d="M285.038,510.351C402.061,497.136,495.189,405.046,509.955,288.5l-87.004-87.004L383.8,217.727   c-0.18-0.179-22.546-22.531-22.546-22.531L95.235,320.548L285.038,510.351z"/>
	<g>
		<path style="fill:#BF6016;" d="M422.951,310.504l-63.617-26.375V227.87l63.617-26.375l4.823,7.119    c9.673,14.278,10.814,32.238,3.425,47.385c7.389,15.147,6.248,33.107-3.425,47.385L422.951,310.504z"/>
		<path style="fill:#994C11;" d="M359.334,284.129l63.617,26.375l4.823-7.119c9.673-14.278,10.814-32.238,3.425-47.385h-71.865    V284.129z"/>
		<path style="fill:#E61E15;" d="M313.646,336.834H135.915l28.292-161.668h149.439c36.82,0,66.776,29.955,66.776,66.776v28.116    C380.422,306.878,350.466,336.834,313.646,336.834z"/>
		<path style="fill:#C91B10;" d="M150.061,256l-14.146,80.834h177.731c36.82,0,66.776-29.955,66.776-66.776V256H150.061z"/>
		<path style="fill:#FF4F24;" d="M136.554,336.868c-11.704,0-22.767-3.107-32.393-9.25c-13.447-8.582-22.833-22.621-26.428-39.531    c-4.775-22.461,0.73-47.821,15.103-69.578c12.35-18.694,29.836-32.632,49.238-39.246c20.298-6.92,40.298-5.101,56.314,5.119l0,0    c13.447,8.582,22.833,22.621,26.428,39.531c4.775,22.461-0.73,47.821-15.103,69.578c-12.35,18.694-29.836,32.631-49.238,39.246    C152.377,335.498,144.324,336.868,136.554,336.868z"/>
		<path style="fill:#FD3019;" d="M77.514,256c-1.995,10.887-1.972,21.792,0.217,32.087c3.595,16.91,12.981,30.949,26.428,39.531    c9.626,6.143,20.689,9.25,32.393,9.25c7.769,0,15.822-1.37,23.921-4.131c19.402-6.614,36.888-20.552,49.238-39.246    c7.785-11.784,12.962-24.626,15.32-37.491H77.514z"/>
		
			<ellipse transform="matrix(0.7071 -0.7071 0.7071 0.7071 -117.8601 171.2281)" style="fill:#FEDBAB;" cx="147.761" cy="227.884" rx="14.058" ry="10.544"/>
		
			<ellipse transform="matrix(0.7071 -0.7071 0.7071 0.7071 -132.7296 197.1856)" style="fill:#FEDBAB;" cx="171.659" cy="258.812" rx="14.058" ry="10.544"/>
		
			<ellipse transform="matrix(0.7071 -0.7071 0.7071 0.7071 -157.8842 174.4137)" style="fill:#FEC478;" cx="131.594" cy="277.79" rx="14.058" ry="10.544"/>
		<path style="fill:#FEC478;" d="M160.832,256c-2.336,4.649-2.16,9.705,0.887,12.752c4.117,4.118,11.906,3.005,17.396-2.485    c3.054-3.054,4.748-6.818,4.946-10.267H160.832z"/>
	</g>
</g>















</svg>
