<?xml version="1.0" encoding="iso-8859-1"?>
<!-- Generator: Adobe Illustrator 21.0.0, SVG Export Plug-In . SVG Version: 6.00 Build 0)  -->
<svg xmlns="http://www.w3.org/2000/svg" xmlns:xlink="http://www.w3.org/1999/xlink" version="1.1" id="Capa_1" x="0px" y="0px" viewBox="0 0 512 512" style="enable-background:new 0 0 512 512;" xml:space="preserve" width="512" height="512">
<g>
	<circle style="fill:#0FAC00;" cx="256" cy="256" r="256"/>
	<path style="fill:#098100;" d="M259.274,511.959c121.715-1.528,222.957-87.982,247.195-202.846l-97.354-97.354l-33.223-14.586   l-39.032-39.649h-4.119c-0.025-0.024-21.077-21.072-21.077-21.072L140.284,392.969L259.274,511.959z"/>
	<g>
		<path style="fill:#E5E5E5;" d="M295.393,174.503H185.598v-8.489c0-30.27,24.627-54.897,54.897-54.897s54.897,24.627,54.897,54.897    V174.503z"/>
		<path style="fill:#D9D9D9;" d="M295.393,166.014c0-30.27-24.627-54.897-54.897-54.897v63.387h54.897V166.014z"/>
		<path style="fill:#FEDBAB;" d="M242.194,174.503h-84.893v-8.489c0-23.405,19.041-42.446,42.446-42.446    s42.446,19.041,42.446,42.446V174.503z"/>
		<path style="fill:#FEC478;" d="M323.691,174.503h-84.893v-8.489c0-23.405,19.041-42.446,42.446-42.446    c23.405,0,42.446,19.041,42.446,42.446V174.503z"/>
		<path style="fill:#994C11;" d="M374.626,293.353c-26.526,0-48.106-21.58-48.106-48.106s21.58-48.106,48.106-48.106    c26.526,0,48.106,21.58,48.106,48.106S401.152,293.353,374.626,293.353z M374.626,214.12c-17.164,0-31.127,13.964-31.127,31.127    s13.964,31.127,31.127,31.127s31.127-13.964,31.127-31.127S391.79,214.12,374.626,214.12z"/>
		<path style="fill:#FEA832;" d="M213.686,400.884h-54.95c-7.044,0-13.598-2.811-18.453-7.915    c-4.855-5.104-7.335-11.789-6.984-18.825l10.831-216.62h75.639L213.686,400.884z"/>
		<path style="fill:#FE9922;" d="M322.255,400.884h-54.95l-6.084-243.36h75.639l10.831,216.62c0.352,7.035-2.128,13.72-6.983,18.825    C335.853,398.073,329.299,400.884,322.255,400.884z"/>
		<path style="fill:#BF6016;" d="M284.289,400.884h-87.587l6.084-243.36h75.419L284.289,400.884z"/>
		<polygon style="fill:#994C11;" points="278.205,157.524 240.496,157.524 240.496,400.884 284.289,400.884   "/>
		<polygon style="fill:#57555C;" points="140.736,225.439 340.255,225.439 339.406,208.46 141.585,208.46   "/>
		<polygon style="fill:#57555C;" points="134.51,349.948 346.481,349.948 345.632,332.97 135.359,332.97   "/>
		<polygon style="fill:#3C3A41;" points="339.406,208.46 240.496,208.46 240.496,225.439 340.255,225.439   "/>
		<polygon style="fill:#3C3A41;" points="345.632,332.97 240.496,332.97 240.496,349.948 346.481,349.948   "/>
	</g>
</g>















</svg>
