<?xml version="1.0" encoding="iso-8859-1"?>
<!-- Generator: Adobe Illustrator 21.0.0, SVG Export Plug-In . SVG Version: 6.00 Build 0)  -->
<svg xmlns="http://www.w3.org/2000/svg" xmlns:xlink="http://www.w3.org/1999/xlink" version="1.1" id="Capa_1" x="0px" y="0px" viewBox="0 0 512 512" style="enable-background:new 0 0 512 512;" xml:space="preserve" width="512" height="512">
<g>
	<circle style="fill:#BF6016;" cx="256" cy="256" r="256"/>
	<path style="fill:#994C11;" d="M176.764,432.385l79.61,79.61C397.587,511.793,512,397.26,512,256c0-0.13-0.005-0.26-0.005-0.39   L336,79.615L176.764,432.385z"/>
	<g>
		<path style="fill:#FCBF27;" d="M313.854,389.667H198.146L176,79.615h160L313.854,389.667z"/>
		<polygon style="fill:#FEA832;" points="336,79.615 256,79.615 256,389.667 313.854,389.667   "/>
		<path style="fill:#E5E5E5;" d="M335.236,432.385H176.764v-25.493c0-20.896,17-37.895,37.895-37.895h82.681    c20.896,0,37.895,17,37.895,37.895V432.385z"/>
		<path style="fill:#FEDBAB;" d="M329.553,169.874H182.447L176,79.615h160L329.553,169.874z"/>
		<polygon style="fill:#FEC478;" points="256,169.874 329.553,169.874 336,79.615 256,79.615   "/>
		<path style="fill:#D9D9D9;" d="M297.34,368.997H256v63.388h79.236v-25.493C335.236,385.997,318.236,368.997,297.34,368.997z"/>
	</g>
</g>















</svg>
