<?xml version="1.0" encoding="iso-8859-1"?>
<!-- Generator: Adobe Illustrator 21.0.0, SVG Export Plug-In . SVG Version: 6.00 Build 0)  -->
<svg xmlns="http://www.w3.org/2000/svg" xmlns:xlink="http://www.w3.org/1999/xlink" version="1.1" id="Capa_1" x="0px" y="0px" viewBox="0 0 512 512" style="enable-background:new 0 0 512 512;" xml:space="preserve" width="512" height="512">
<g>
	<circle style="fill:#FEDB41;" cx="256" cy="256" r="256"/>
	<path style="fill:#FEA832;" d="M512,256c0-13.24-1.006-26.245-2.944-38.944L402,110l-259,13l-33,58.289V402l107.056,107.056   C229.755,510.994,242.76,512,256,512C397.385,512,512,397.385,512,256z"/>
	<g>
		
			<rect x="286.171" y="144.219" transform="matrix(0.2577 -0.9662 0.9662 0.2577 91.1119 424.1385)" style="fill:#3C3A41;" width="70.829" height="17.109"/>
		
			<rect x="215.508" y="117.502" transform="matrix(0.9701 -0.2425 0.2425 0.9701 -30.3631 58.9046)" style="fill:#57555C;" width="17.109" height="70.544"/>
		<path style="fill:#BF6016;" d="M273.109,338.695c-24.199,0-46.737-10.341-62.477-28.516H164.75V190.414h45.882    c15.74-18.175,38.278-28.516,62.477-28.516s46.737,10.341,62.477,28.516h45.882V310.18h-45.882    C319.846,328.354,297.309,338.695,273.109,338.695z"/>
		<path style="fill:#994C11;" d="M335.586,190.414c-15.74-18.175-38.278-28.516-62.477-28.516v176.797    c24.199,0,46.737-10.341,62.477-28.516h45.882V190.414H335.586z"/>
		<path style="fill:#C8C6CE;" d="M127.109,402H110V181.289C110,141.98,141.98,110,181.289,110H402v17.109H181.289    c-29.875,0-54.18,24.305-54.18,54.18V402z"/>
		<path style="fill:#FEA832;" d="M281.664,293.07h-28.516c-11.006,0-19.961-8.955-19.961-19.961v-54.18h68.438v54.18    C301.625,284.116,292.67,293.07,281.664,293.07z"/>
		<path style="fill:#FE9922;" d="M335.844,256h-17.109v-17.109c0-1.572-1.279-2.852-2.852-2.852H293.07V218.93h22.813    c11.006,0,19.961,8.955,19.961,19.961V256z"/>
		<path style="fill:#FE9922;" d="M273.109,293.07h8.555c11.006,0,19.961-8.955,19.961-19.961v-54.18h-28.516V293.07z"/>
		<rect x="273.109" y="110" style="fill:#ADACB3;" width="128.891" height="17.109"/>
	</g>
</g>















</svg>
