<?xml version="1.0" encoding="iso-8859-1"?>
<!-- Generator: Adobe Illustrator 21.0.0, SVG Export Plug-In . SVG Version: 6.00 Build 0)  -->
<svg xmlns="http://www.w3.org/2000/svg" xmlns:xlink="http://www.w3.org/1999/xlink" version="1.1" id="Capa_1" x="0px" y="0px" viewBox="0 0 512 512" style="enable-background:new 0 0 512 512;" xml:space="preserve" width="512" height="512">
<g>
	<circle style="fill:#BF6016;" cx="256" cy="256" r="256"/>
	<path style="fill:#994C11;" d="M511.967,258.643l-141.2-141.2L86,200.205l134.948,134.563l5.405,78.046l91.592,91.624   C428.577,476.941,510.762,377.497,511.967,258.643z"/>
	<g>
		<rect x="206.195" y="163.017" style="fill:#E5E5E5;" width="19.922" height="74.375"/>
		<rect x="246.039" y="163.017" style="fill:#E5E5E5;" width="19.922" height="74.375"/>
		<rect x="285.883" y="163.017" style="fill:#D9D9D9;" width="19.922" height="74.375"/>
		<rect x="256" y="163.017" style="fill:#D9D9D9;" width="9.961" height="74.375"/>
		<path style="fill:#C8C6CE;" d="M256,425.986c-11.28,0-22.086-4.801-29.647-13.173c-7.561-8.371-11.24-19.609-10.095-30.831    l10.799-108.731h57.885l10.802,108.757c1.142,11.195-2.537,22.433-10.098,30.804C278.086,421.184,267.28,425.986,256,425.986z"/>
		<path style="fill:#ADACB3;" d="M295.745,382.009l-10.802-108.757h-28.941v152.734c11.28,0,22.085-4.802,29.646-13.173    C293.208,404.442,296.887,393.204,295.745,382.009z"/>
		<path style="fill:#C91B10;" d="M399.438,226.767h-9.961c-20.139,0-36.523-16.384-36.523-36.523v-19.258    c0-9.52,7.745-17.266,17.266-17.266h19.258c20.139,0,36.523,16.384,36.523,36.523v9.961h-9.961    c-9.154,0-16.602,7.447-16.602,16.602V226.767z"/>
		<path style="fill:#E61E15;" d="M122.523,226.767h-9.961v-9.961c0-9.154-7.447-16.602-16.602-16.602H86v-9.961    c0-20.139,16.384-36.523,36.523-36.523h19.258c9.52,0,17.266,7.745,17.266,17.266v19.258    C159.047,210.383,142.663,226.767,122.523,226.767z"/>
		<path style="fill:#FF4F24;" d="M170.469,186.943c-8.271,0-16.4-2.583-23.438-7.611c-10.772-7.695-17.203-20.208-17.203-33.471    c0-15.902,9.23-30.477,23.514-37.132c65.24-30.397,140.075-30.397,205.316,0l0,0c14.284,6.655,23.514,21.23,23.514,37.132    c0,13.263-6.431,25.776-17.203,33.471c-10.788,7.707-24.142,9.671-36.636,5.389c-46.644-15.985-98.02-15.985-144.665,0    C179.324,186.208,174.876,186.942,170.469,186.943z"/>
		<path style="fill:#FD3019;" d="M358.658,108.728C326.038,93.529,291.019,85.93,256,85.93v86.801    c24.505,0,49.01,3.996,72.333,11.989c12.494,4.282,25.849,2.318,36.636-5.389c10.772-7.695,17.203-20.208,17.203-33.471    C382.172,129.958,372.942,115.383,358.658,108.728z"/>
		<path style="fill:#E5E5E5;" d="M269.281,293.173h-26.563c-20.139,0-36.523-16.384-36.523-36.523v-29.219h99.609v29.219    C305.805,276.789,289.42,293.173,269.281,293.173z"/>
		<path style="fill:#D9D9D9;" d="M305.805,227.431h-49.804v65.742h13.28c20.139,0,36.523-16.384,36.523-36.523V227.431z"/>
	</g>
</g>















</svg>
