<?xml version="1.0" encoding="iso-8859-1"?>
<!-- Generator: Adobe Illustrator 21.0.0, SVG Export Plug-In . SVG Version: 6.00 Build 0)  -->
<svg xmlns="http://www.w3.org/2000/svg" xmlns:xlink="http://www.w3.org/1999/xlink" version="1.1" id="Capa_1" x="0px" y="0px" viewBox="0 0 512 512" style="enable-background:new 0 0 512 512;" xml:space="preserve" width="512" height="512">
<g>
	<circle style="fill:#0FAC00;" cx="256" cy="256" r="256"/>
	<path style="fill:#098100;" d="M508.206,300.081L404,195.875h-47.125l-87-87.875L108,404l104.263,104.263   C226.477,510.71,241.087,512,256,512C382.352,512,487.312,420.458,508.206,300.081z"/>
	<g>
		<path style="fill:#FEA832;" d="M404,404H108V195.875h296V404z"/>
		<rect x="256" y="195.875" style="fill:#FE9922;" width="148" height="208.125"/>
		<rect x="287.219" y="230.563" style="fill:#FEA832;" width="82.094" height="17.344"/>
		<rect x="287.219" y="265.25" style="fill:#FEA832;" width="82.094" height="17.344"/>
		<rect x="287.219" y="299.938" style="fill:#FEA832;" width="82.094" height="17.344"/>
		<rect x="287.219" y="334.625" style="fill:#FEA832;" width="82.094" height="17.344"/>
		<path style="fill:#57555C;" d="M269.875,160.031H142.688V108h127.188V160.031z"/>
		<path style="fill:#3C3A41;" d="M269.875,160.031h-63.594V108h63.594V160.031z"/>
		<path style="fill:#FEDBAB;" d="M218.545,327.688h-24.528l-51.33-51.33v-133.67h127.188v133.67L218.545,327.688z"/>
		<polygon style="fill:#FEC478;" points="206.281,142.688 206.281,327.688 218.545,327.688 269.875,276.358 269.875,142.688   "/>
		<polygon style="fill:#BF6016;" points="258.313,404 240.969,404 240.969,291.844 171.594,291.844 171.594,404 154.25,404     154.25,274.5 258.313,274.5   "/>
		<polygon style="fill:#994C11;" points="206.281,291.844 240.969,291.844 240.969,404 258.313,404 258.313,274.5 206.281,274.5       "/>
		<rect x="108" y="386.656" style="fill:#8C4402;" width="296" height="17.344"/>
		<rect x="256" y="386.656" style="fill:#723802;" width="148" height="17.344"/>
	</g>
</g>















</svg>
