<?xml version="1.0" encoding="iso-8859-1"?>
<!-- Generator: Adobe Illustrator 21.0.0, SVG Export Plug-In . SVG Version: 6.00 Build 0)  -->
<svg xmlns="http://www.w3.org/2000/svg" xmlns:xlink="http://www.w3.org/1999/xlink" version="1.1" id="Capa_1" x="0px" y="0px" viewBox="0 0 512 512" style="enable-background:new 0 0 512 512;" xml:space="preserve" width="512" height="512">
<g>
	<circle style="fill:#FEDB41;" cx="256" cy="256" r="256"/>
	<path style="fill:#FEA832;" d="M266.269,511.777c130.564-5.153,235.986-108.074,245.08-237.588L351.868,114.709l-24.756-3.614   l-21.019-21.128l-47.015,21.128c0,0-100.157,16.555-97.946,18.489c0.311,0.355,8.021,8.022,8.031,8.034L154,399.509   L266.269,511.777z"/>
	<g>
		<path style="fill:#C8C6CE;" d="M321.421,436.088H190.579v-10.552c0-14.352-11.676-26.028-26.028-26.028H154v-26.731h204v26.731    h-10.552c-14.352,0-26.028,11.676-26.028,26.028V436.088z"/>
		<path style="fill:#ADACB3;" d="M256,436.088h65.421v-10.552c0-14.352,11.676-26.028,26.028-26.028H358v-26.731H256V436.088z"/>
		<path style="fill:#79D60B;" d="M358,399.509H154V155.813l37.265-44.718h129.47L358,155.813V399.509z"/>
		<polygon style="fill:#33BC00;" points="358,155.813 320.735,111.095 256,111.095 256,399.509 358,399.509   "/>
		<path style="fill:#E5E5E5;" d="M343.931,132.198H168.069c-5.828,0-10.552-4.724-10.552-10.552l0,0    c0-5.828,4.724-10.552,10.552-10.552h175.862c5.828,0,10.552,4.724,10.552,10.552l0,0    C354.483,127.474,349.759,132.198,343.931,132.198z"/>
		
			<rect x="255.912" y="91.398" transform="matrix(0.6644 -0.7474 0.7474 0.6644 18.2238 244.4817)" style="fill:#045901;" width="50.824" height="21.103"/>
		<path style="fill:#C2FC3A;" d="M256,336.902c-16.655,0-32.069-8.74-43.405-24.61c-10.568-14.795-16.388-34.285-16.388-54.88    s5.82-40.085,16.388-54.88c11.336-15.87,26.751-24.61,43.405-24.61s32.069,8.74,43.405,24.61    c10.568,14.795,16.388,34.285,16.388,54.88s-5.82,40.085-16.388,54.88C288.069,328.161,272.655,336.902,256,336.902z"/>
		<path style="fill:#91DC59;" d="M299.405,312.292c10.568-14.795,16.388-34.285,16.388-54.88s-5.82-40.085-16.388-54.88    c-11.336-15.87-26.75-24.61-43.405-24.61v158.979C272.655,336.902,288.069,328.161,299.405,312.292z"/>
		<path style="fill:#D9D9D9;" d="M343.931,111.095H256v21.103h87.931c5.828,0,10.552-4.724,10.552-10.552    C354.483,115.819,349.759,111.095,343.931,111.095z"/>
	</g>
</g>















</svg>
