<?xml version="1.0" encoding="iso-8859-1"?>
<!-- Generator: Adobe Illustrator 21.0.0, SVG Export Plug-In . SVG Version: 6.00 Build 0)  -->
<svg xmlns="http://www.w3.org/2000/svg" xmlns:xlink="http://www.w3.org/1999/xlink" version="1.1" id="Capa_1" x="0px" y="0px" viewBox="0 0 512 512" style="enable-background:new 0 0 512 512;" xml:space="preserve" width="512" height="512">
<g>
	<circle style="fill:#BF6016;" cx="256" cy="256" r="256"/>
	<path style="fill:#994C11;" d="M256.922,511.988c140.652-0.497,254.569-114.415,255.066-255.066L423,167.934h-88.557   l-12.875-12.874L89,344.066L256.922,511.988z"/>
	<g>
		<path style="fill:#FCBF27;" d="M256,386.469c-15.6,0-30.634-4.318-44.686-12.834c-11.938-7.235-22.625-17.167-31.825-29.568H89    V167.934h90.489c9.2-12.401,19.887-22.333,31.825-29.568c14.052-8.516,29.087-12.834,44.686-12.834s30.634,4.318,44.686,12.834    c11.938,7.235,22.625,17.167,31.825,29.568H423v176.133h-90.489c-9.2,12.401-19.887,22.333-31.825,29.568    C286.634,382.151,271.6,386.469,256,386.469z"/>
		<path style="fill:#FEA832;" d="M332.511,167.934c-9.2-12.401-19.887-22.333-31.825-29.568    c-14.052-8.516-29.087-12.834-44.686-12.834v260.938c15.6,0,30.634-4.318,44.686-12.834c11.938-7.235,22.625-17.167,31.825-29.568    H423V167.934H332.511z"/>
		<path style="fill:#BF6016;" d="M214.933,231.718c1.788-0.803,3.129-1.998,4.023-3.587c0.894-1.588,1.341-3.255,1.341-5.002    c0-1.187-0.202-2.348-0.605-3.483c-0.403-1.134-0.973-2.147-1.709-3.038c-0.736-0.89-1.63-1.614-2.682-2.173    c-1.052-0.558-2.227-0.838-3.523-0.838h-21.665v37.184h18.352c1.822,0,3.55-0.183,5.179-0.55c1.63-0.367,3.058-0.934,4.286-1.702    c1.227-0.767,2.19-1.755,2.892-2.959c0.701-1.204,1.052-2.645,1.052-4.321c0-2.619-0.623-4.704-1.867-6.258    C218.762,233.438,217.071,232.346,214.933,231.718z M200.368,222.291h7.309c0.666,0,1.244,0.219,1.736,0.655    c0.49,0.437,0.736,1.161,0.736,2.173c0,1.152-0.29,1.921-0.868,2.304c-0.578,0.385-1.218,0.576-1.919,0.576h-6.993V222.291z     M210.595,241.407c-0.578,0.524-1.288,0.785-2.13,0.785h-8.098v-6.232h8.466c0.77,0,1.401,0.306,1.893,0.916    c0.49,0.611,0.736,1.371,0.736,2.278C211.463,240.133,211.173,240.883,210.595,241.407z"/>
		<polygon style="fill:#BF6016;" points="236.597,236.012 250.164,236.012 250.164,227.738 236.597,227.738 236.597,222.501     252.477,222.501 252.477,213.598 226.343,213.598 226.343,250.781 252.951,250.781 252.951,241.878 236.597,241.878   "/>
		<polygon style="fill:#994C11;" points="267.99,236.012 281.556,236.012 281.556,227.738 267.99,227.738 267.99,222.501     283.87,222.501 283.87,213.598 257.736,213.598 257.736,250.781 284.344,250.781 284.344,241.878 267.99,241.878   "/>
		<path style="fill:#994C11;" d="M313.473,237.112c1.683-1.187,2.998-2.714,3.944-4.582c0.947-1.867,1.42-3.884,1.42-6.049    c0-1.571-0.316-3.133-0.947-4.687c-0.631-1.553-1.498-2.933-2.603-4.137c-1.104-1.205-2.428-2.182-3.97-2.933    c-1.542-0.75-3.225-1.126-5.048-1.126h-17.142v37.184h10.254v-11.417h3.839l7.099,11.417h11.568L313.473,237.112z M307.61,229.414    c-0.544,0.699-1.13,1.048-1.761,1.048h-6.468v-7.961h6.204c0.631,0,1.262,0.34,1.893,1.021c0.631,0.681,0.947,1.668,0.947,2.959    C308.426,227.738,308.153,228.716,307.61,229.414z"/>
		<rect x="190.113" y="270.352" style="fill:#FEDBAB;" width="131.773" height="19.57"/>
		<rect x="341.457" y="246.215" style="fill:#FE9922;" width="42.402" height="19.57"/>
		<rect x="341.457" y="207.074" style="fill:#FE9922;" width="42.402" height="19.57"/>
		<rect x="341.457" y="285.355" style="fill:#FE9922;" width="29.355" height="19.57"/>
		<rect x="128.141" y="246.215" style="fill:#FEDBAB;" width="42.402" height="19.57"/>
		<rect x="128.141" y="207.074" style="fill:#FEDBAB;" width="42.402" height="19.57"/>
		<rect x="128.141" y="285.355" style="fill:#FEDBAB;" width="29.355" height="19.57"/>
		<rect x="256" y="270.352" style="fill:#FEC478;" width="65.887" height="19.57"/>
	</g>
</g>















</svg>
