<?xml version="1.0" encoding="iso-8859-1"?>
<!-- Generator: Adobe Illustrator 21.0.0, SVG Export Plug-In . SVG Version: 6.00 Build 0)  -->
<svg xmlns="http://www.w3.org/2000/svg" xmlns:xlink="http://www.w3.org/1999/xlink" version="1.1" id="Capa_1" x="0px" y="0px" viewBox="0 0 512 512" style="enable-background:new 0 0 512 512;" xml:space="preserve" width="512" height="512">
<g>
	<circle style="fill:#FEDB41;" cx="256" cy="256" r="256"/>
	<path style="fill:#FEA832;" d="M512,256c0-6.696-0.26-13.332-0.764-19.899L388.875,113.74l-74.08,69.173   c0,0,13.383,13.401,13.58,13.597c-4.422,4.583-9.805,8.228-15.832,10.594c-0.204-0.207-36.625-36.607-36.625-36.607l-36.829-2.731   l-68-68.151l-46.873,79.81l30.145,30.149l3.036,35.462l26.991,26.992l-44.899,37.18l31.016,31.013   c-0.013,0.439-0.026,10.466-0.026,10.466l40.326,40l7.953,14.126l99.539,99.539C429.571,476.528,512,375.897,512,256z"/>
	<g>
		<path style="fill:#ADACB3;" d="M296.294,228.51h-6.695v-18.326h6.695c24.603,0,44.619-20.016,44.619-44.619v-0.586h18.326v0.586    C359.238,200.273,331.001,228.51,296.294,228.51z"/>
		<g>
			<path style="fill:#ADACB3;" d="M321.622,258.444h-25.915v-18.326h25.915c16.026,0,29.064-13.038,29.064-29.064v-1.48h18.326v1.48     C369.013,237.184,347.754,258.444,321.622,258.444z"/>
			<path style="fill:#ADACB3;" d="M358.182,320.631l-15.804-19.825c-5.677-7.123-14.158-11.208-23.267-11.208h-20.349v-18.326     h20.349c14.719,0,28.423,6.601,37.598,18.11l15.804,19.825L358.182,320.631z"/>
			<path style="fill:#ADACB3;" d="M341.523,350.686h-18.326v-9.145c0-10.56-6.79-19.713-16.896-22.776l-16.916-5.126l5.315-17.539     l16.915,5.126c17.888,5.421,29.908,21.622,29.908,40.314V350.686z"/>
		</g>
		<path style="fill:#C8C6CE;" d="M222.402,226.678h-6.695c-34.708,0-62.945-28.237-62.945-62.945v-0.586h18.326v0.586    c0,24.603,20.016,44.619,44.619,44.619h6.695V226.678z"/>
		<g>
			<path style="fill:#C8C6CE;" d="M216.293,258.444h-25.915c-26.131,0-47.39-21.259-47.39-47.39v-1.48h18.326v1.48     c0,16.026,13.038,29.064,29.064,29.064h25.915V258.444z"/>
			<path style="fill:#C8C6CE;" d="M153.818,320.631l-14.331-11.424l15.804-19.825c9.175-11.509,22.879-18.11,37.598-18.11h20.349     v18.326h-20.349c-9.109,0-17.59,4.085-23.267,11.208L153.818,320.631z"/>
			<path style="fill:#C8C6CE;" d="M188.803,350.686h-18.326v-9.145c0-18.692,12.02-34.893,29.909-40.314l16.915-5.126l5.315,17.539     l-16.915,5.126c-10.107,3.062-16.897,12.215-16.897,22.776V350.686z"/>
		</g>
		<path style="fill:#C91B10;" d="M359.238,192.469h-20.77c-18.863,0-34.209-15.346-34.209-34.209s15.346-34.209,34.209-34.209h20.77    V192.469z"/>
		<path style="fill:#E61E15;" d="M173.531,192.469h-20.77V124.05h20.77c18.863,0,34.209,15.346,34.209,34.209    S192.395,192.469,173.531,192.469z"/>
		<path style="fill:#FD3019;" d="M355.573,192.469h-14.661V99.615h14.661c25.6,0,46.427,20.827,46.427,46.427    S381.173,192.469,355.573,192.469z"/>
		<path style="fill:#FF4F24;" d="M171.088,192.469h-14.661c-25.6,0-46.427-20.827-46.427-46.427s20.827-46.427,46.427-46.427h14.661    V192.469z"/>
		<path style="fill:#E61E15;" d="M283.49,216.904H228.51v-27.49c0-15.158,12.332-27.49,27.49-27.49s27.49,12.332,27.49,27.49    V216.904z"/>
		<path style="fill:#C91B10;" d="M283.49,216.904v-27.49c0-15.158-12.332-27.49-27.49-27.49v54.979H283.49z"/>
		<path style="fill:#E61E15;" d="M278.271,375.732h-44.542l-23.324-85.523h91.19L278.271,375.732z"/>
		<polygon style="fill:#C91B10;" points="301.595,290.209 256,290.209 256,375.732 278.271,375.732   "/>
		<path style="fill:#FF4F24;" d="M274.326,357.406h-36.653c-15.158,0-27.49,12.332-27.49,27.49c0,15.158,12.332,27.49,27.49,27.49    c7.035,0,13.459-2.659,18.326-7.022c4.867,4.363,11.291,7.022,18.326,7.022c15.158,0,27.49-12.332,27.49-27.49    C301.816,369.738,289.484,357.406,274.326,357.406z"/>
		<path style="fill:#FF4F24;" d="M283.49,308.536H228.51c-11.789,0-21.381-9.591-21.381-21.381v-54.979    c0-18.526,15.072-33.598,33.598-33.598h30.544c18.526,0,33.598,15.072,33.598,33.598v54.979    C304.87,298.944,295.279,308.536,283.49,308.536z"/>
		<path style="fill:#FD3019;" d="M271.272,198.577H256v109.958h27.49c11.789,0,21.381-9.591,21.381-21.381v-54.979    C304.87,213.65,289.798,198.577,271.272,198.577z"/>
		<path style="fill:#FD3019;" d="M274.326,357.406H256v47.957c4.867,4.363,11.291,7.022,18.326,7.022    c15.158,0,27.49-12.332,27.49-27.49C301.816,369.738,289.484,357.406,274.326,357.406z"/>
	</g>
</g>















</svg>
