<?xml version="1.0" encoding="iso-8859-1"?>
<!-- Generator: Adobe Illustrator 21.0.0, SVG Export Plug-In . SVG Version: 6.00 Build 0)  -->
<svg xmlns="http://www.w3.org/2000/svg" xmlns:xlink="http://www.w3.org/1999/xlink" version="1.1" id="Capa_1" x="0px" y="0px" viewBox="0 0 512 512" style="enable-background:new 0 0 512 512;" xml:space="preserve" width="512" height="512">
<g>
	<circle style="fill:#FD3019;" cx="256" cy="256" r="256"/>
	<path style="fill:#C91B10;" d="M511.298,274.989L436,199.69l-66.25,26.905l-21.683-8.305l-78-78.239   c0,0-178.88,133.206-174.078,137.995c0.333,0.336,66.456,66.468,66.456,66.468l13.628,21.341L315.3,505.082   C422.133,479.742,503.051,387.465,511.298,274.989z"/>
	<g>
		<path style="fill:#FE9922;" d="M212.388,380.381c-12.472,0-24.613-4.423-34.239-12.652    c-11.737-10.033-18.468-24.643-18.468-40.083v-25.611l110.387,11.299v58.615l-49.451,7.787    C217.874,380.168,215.122,380.381,212.388,380.381z"/>
		<path style="fill:#FEA832;" d="M159.68,209.965v-25.611c0-15.44,6.731-30.05,18.468-40.083    c11.737-10.034,27.216-14.409,42.468-12.008l49.451,7.788v58.615L159.68,209.965z"/>
		<path style="fill:#FEDB41;" d="M220.978,334.123c-50.628,0-98.87-24.193-139.1-71.339l-5.841-6.846l5.841-6.846    c62.27-72.975,143.744-90.961,223.532-49.346c10.706,5.584,20.782,10.165,30.805,14.004l0,0l50.567,19.369v45.638l-50.567,19.369    c-10.023,3.839-20.1,8.42-30.805,14.004C277.17,326.86,248.715,334.123,220.978,334.123z"/>
		<path style="fill:#FCBF27;" d="M76.037,255.938L76.037,255.938l5.841,6.846c40.23,47.146,88.472,71.339,139.1,71.339    c27.737,0,56.192-7.263,84.433-21.993c10.706-5.584,20.782-10.165,30.805-14.004l50.567-19.369v-22.819H76.037z"/>
		<path style="fill:#BF6016;" d="M436,312.187h-24.609c-25.2,0-45.702-20.502-45.702-45.702v-21.093    c0-25.2,20.502-45.702,45.702-45.702H436v35.992l-1.527,2.52c-6.63,10.94-6.63,24.532,0,35.472l1.527,2.52V312.187z"/>
		<circle style="fill:#098100;" cx="160.383" cy="255.939" r="10.547"/>
		<path style="fill:#994C11;" d="M365.69,255.938v10.547c0,25.2,20.502,45.702,45.702,45.702H436v-35.992l-1.527-2.52    c-3.315-5.47-4.973-11.603-4.973-17.736H365.69z"/>
		<path style="fill:#045901;" d="M149.837,255.939c0,5.825,4.722,10.547,10.547,10.547c5.825,0,10.547-4.722,10.547-10.547v0    L149.837,255.939L149.837,255.939z"/>
	</g>
</g>















</svg>
