<?xml version="1.0" encoding="iso-8859-1"?>
<!-- Generator: Adobe Illustrator 21.0.0, SVG Export Plug-In . SVG Version: 6.00 Build 0)  -->
<svg xmlns="http://www.w3.org/2000/svg" xmlns:xlink="http://www.w3.org/1999/xlink" version="1.1" id="Capa_1" x="0px" y="0px" viewBox="0 0 512 512" style="enable-background:new 0 0 512 512;" xml:space="preserve" width="512" height="512">
<g>
	<circle style="fill:#FD3019;" cx="256" cy="256" r="256"/>
	<path style="fill:#C91B10;" d="M512,256c0-1.43-0.031-2.852-0.054-4.276L339.885,79.663L167.671,287.946l77.997,77.997V412   l-72.326,20.337l79.624,79.624c1.011,0.012,2.019,0.038,3.034,0.038C397.385,512,512,397.385,512,256z"/>
	<g>
		<path style="fill:#C8C6CE;" d="M266.332,380.676v-77.148h-20.665v77.148c0,17.092-13.905,30.997-30.997,30.997v13.776h82.658    v-13.776C280.237,411.673,266.332,397.767,266.332,380.676z"/>
		<path style="fill:#ADACB3;" d="M266.332,380.676v-77.148H256v121.921h41.329v-13.776    C280.237,411.673,266.332,397.767,266.332,380.676z"/>
		<path style="fill:#E5E5E5;" d="M280.534,313.861h-49.067c-17.313,0-34.201-4.886-48.839-14.128    c-14.638-9.243-26.31-22.39-33.753-38.021c-9.024-18.95-11.254-40.616-6.281-61.006l29.523-121.042h167.77l29.523,121.042    c4.973,20.391,2.742,42.057-6.281,61.006c-7.443,15.63-19.115,28.778-33.753,38.021    C314.734,308.975,297.846,313.861,280.534,313.861z"/>
		<path style="fill:#D9D9D9;" d="M369.408,200.705L339.885,79.663H256v234.198h24.534c17.313,0,34.201-4.886,48.839-14.128    c14.639-9.243,26.31-22.391,33.753-38.021C372.15,242.762,374.381,221.097,369.408,200.705z"/>
		<path style="fill:#FCBF27;" d="M280.534,313.861h-49.067c-17.313,0-34.201-4.886-48.839-14.128    c-14.638-9.243-26.31-22.39-33.753-38.021c-9.024-18.95-11.254-40.616-6.281-61.006l17.762-72.825h191.291l17.763,72.825    c4.973,20.391,2.742,42.057-6.281,61.006c-7.443,15.631-19.115,28.778-33.753,38.021    C314.734,308.975,297.846,313.861,280.534,313.861z"/>
		<path style="fill:#FEA832;" d="M351.645,127.88H256v185.981h24.534c17.313,0,34.201-4.886,48.839-14.128    c14.639-9.243,26.31-22.39,33.753-38.021c9.024-18.949,11.254-40.615,6.281-61.006L351.645,127.88z"/>
		<rect x="173.342" y="411.673" style="fill:#E5E5E5;" width="165.316" height="20.665"/>
		<path style="fill:#FEDBAB;" d="M370.125,203.65H141.874l18.48-75.77h191.291L370.125,203.65z"/>
		<circle style="fill:#FEDB41;" cx="235.336" cy="262.199" r="10.332"/>
		<circle style="fill:#FEDB41;" cx="200.895" cy="234.647" r="10.332"/>
		<circle style="fill:#FCBF27;" cx="276.665" cy="248.423" r="10.332"/>
		<circle style="fill:#FCBF27;" cx="319.371" cy="234.647" r="10.332"/>
		<polygon style="fill:#FEC478;" points="256,127.88 256,203.65 370.125,203.65 351.645,127.88   "/>
		<rect x="256" y="411.673" style="fill:#D9D9D9;" width="82.658" height="20.665"/>
	</g>
</g>















</svg>
