<?xml version="1.0" encoding="iso-8859-1"?>
<!-- Generator: Adobe Illustrator 21.0.0, SVG Export Plug-In . SVG Version: 6.00 Build 0)  -->
<svg xmlns="http://www.w3.org/2000/svg" xmlns:xlink="http://www.w3.org/1999/xlink" version="1.1" id="Capa_1" x="0px" y="0px" viewBox="0 0 512 512" style="enable-background:new 0 0 512 512;" xml:space="preserve" width="512" height="512">
<g>
	<circle style="fill:#0FAC00;" cx="256" cy="256" r="256"/>
	<path style="fill:#098100;" d="M507.608,303.37L364.003,159.766l-70.402-52.607c-0.112-0.114-7.006-7.004-7.342-7.336   c-7.598-8.04-58.349-5.134-65.695,6.74l-9.568-9.797l-63.325,63.326l51.349,51.248l-0.515,2.552l-30.433,151.853L137,425.244   l84.423,84.423C232.733,511.195,244.271,512,256,512C381.198,512,485.388,422.121,507.608,303.37z"/>
	<g>
		<path style="fill:#FF4F24;" d="M297.65,146.256h-83.3v-17.85c0-22.966,18.684-41.65,41.65-41.65s41.65,18.684,41.65,41.65V146.256    z"/>
		<path style="fill:#FD3019;" d="M297.65,128.406c0-22.966-18.684-41.65-41.65-41.65v59.5h41.65V128.406z"/>
		<path style="fill:#FEDBAB;" d="M343.928,385.578H168.072v-20.824l0.196-0.971l47.883-237.361h79.699l48.078,238.332V385.578z"/>
		<polygon style="fill:#FEC478;" points="343.928,364.754 295.849,126.422 256,126.422 256,385.578 343.928,385.578   "/>
		<path style="fill:#BF6016;" d="M229.031,218.038l-81.36-57.947l63.325-63.326l57.947,81.361L229.031,218.038z"/>
		<path style="fill:#994C11;" d="M301.003,313.423l-57.947-81.361l39.913-39.912l81.36,57.947L301.003,313.423z"/>
		<path style="fill:#BF6016;" d="M210.997,313.423l-63.325-63.326l81.36-57.947l39.913,39.912L210.997,313.423z"/>
		<path style="fill:#994C11;" d="M282.969,218.038l-39.913-39.912l57.947-81.361l63.325,63.326L282.969,218.038z"/>
		<path style="fill:#FEA832;" d="M256,234.83c-7.618,0-15.237-2.9-21.036-8.699c-11.6-11.6-11.6-30.474,0-42.073    c11.599-11.599,30.473-11.599,42.072,0v0c11.6,11.599,11.6,30.473,0,42.073C271.237,231.93,263.618,234.83,256,234.83z"/>
		<path style="fill:#C8C6CE;" d="M375,425.244H137v-59.5h238V425.244z"/>
		<rect x="256" y="365.744" style="fill:#ADACB3;" width="119" height="59.5"/>
		<path style="fill:#57555C;" d="M292.361,425.244h-72.722v-49.583c0-20.05,16.311-36.361,36.361-36.361    s36.361,16.312,36.361,36.361V425.244z"/>
		<path style="fill:#3C3A41;" d="M256,339.3v85.944h36.361v-49.583C292.361,355.612,276.05,339.3,256,339.3z"/>
		<path style="fill:#FE9922;" d="M277.036,184.058L277.036,184.058c-5.8-5.8-13.418-8.699-21.036-8.699v59.472    c7.618,0,15.237-2.9,21.036-8.699C288.636,214.531,288.636,195.657,277.036,184.058z"/>
	</g>
</g>















</svg>
