<?xml version="1.0" encoding="iso-8859-1"?>
<!-- Generator: Adobe Illustrator 21.0.0, SVG Export Plug-In . SVG Version: 6.00 Build 0)  -->
<svg xmlns="http://www.w3.org/2000/svg" xmlns:xlink="http://www.w3.org/1999/xlink" version="1.1" id="Capa_1" x="0px" y="0px" viewBox="0 0 512 512" style="enable-background:new 0 0 512 512;" xml:space="preserve" width="512" height="512">
<g>
	<circle style="fill:#BF6016;" cx="256" cy="256" r="256"/>
	<path style="fill:#994C11;" d="M512,256c0-4.923-0.153-9.81-0.427-14.664L391.618,121.382L110,402l107.056,107.056   C229.755,510.994,242.76,512,256,512C397.385,512,512,397.385,512,256z"/>
	<g>
		<path style="fill:#FEDB41;" d="M364.93,110H147.07c-20.44,0-37.07,16.63-37.07,37.07v193.906h292V147.07    C402,126.63,385.37,110,364.93,110z M287.367,183.57h-62.734c-6.29,0-11.406-5.117-11.406-11.406    c0-5.82,4.383-10.637,10.021-11.322c21.196,7.983,44.31,7.983,65.506,0c5.638,0.686,10.021,5.502,10.021,11.322    C298.773,178.453,293.657,183.57,287.367,183.57z"/>
		<path style="fill:#FCBF27;" d="M402,147.07c0-20.441-16.63-37.07-37.07-37.07H256v56.829c11.077,0,22.155-1.996,32.753-5.987    c5.638,0.686,10.021,5.502,10.021,11.322c0,6.289-5.117,11.406-11.406,11.406H256v157.406h146V147.07z"/>
		<path style="fill:#C2FC3A;" d="M230.336,340.977h-85.547v-46.195c0-11.153,7.151-20.667,17.109-24.198v-47.091h51.328v47.091    c9.958,3.531,17.109,13.045,17.109,24.198V340.977z"/>
		<path style="fill:#FCBF27;" d="M287.367,200.68h-62.734c-15.724,0-28.516-12.792-28.516-28.516s12.792-28.516,28.516-28.516h1.647    l1.53,0.612c18.178,7.271,38.202,7.271,56.38,0l1.53-0.612h1.647c15.724,0,28.516,12.792,28.516,28.516    S303.091,200.68,287.367,200.68z M223.247,160.842c-5.638,0.686-10.021,5.502-10.021,11.322c0,6.289,5.117,11.406,11.406,11.406    h62.734c6.29,0,11.406-5.117,11.406-11.406c0-5.82-4.383-10.637-10.021-11.322C267.557,168.824,244.443,168.824,223.247,160.842z"/>
		<path style="fill:#FEA832;" d="M288.753,160.842c5.638,0.686,10.021,5.502,10.021,11.322c0,6.289-5.117,11.406-11.406,11.406H256    v17.109h31.367c15.724,0,28.516-12.792,28.516-28.516s-12.792-28.516-28.516-28.516h-1.647l-1.53,0.612    c-9.089,3.636-18.639,5.454-28.19,5.454v17.115C267.077,166.829,278.155,164.833,288.753,160.842z"/>
		<path style="fill:#91DC59;" d="M213.227,270.583v-47.091h-25.664v117.484h42.773v-46.195    C230.336,283.628,223.185,274.114,213.227,270.583z"/>
		<path style="fill:#C2FC3A;" d="M298.773,340.977h-85.547v-46.195c0-11.153,7.151-20.667,17.109-24.198v-47.091h51.328v47.091    c9.958,3.531,17.109,13.045,17.109,24.198V340.977z"/>
		<path style="fill:#91DC59;" d="M281.664,270.583v-47.091H256v117.484h42.773v-46.195    C298.773,283.628,291.622,274.114,281.664,270.583z"/>
		<path style="fill:#C2FC3A;" d="M367.211,340.977h-85.547v-46.195c0-11.153,7.151-20.667,17.109-24.198v-47.091h51.328v47.091    c9.958,3.531,17.109,13.045,17.109,24.198V340.977z"/>
		<path style="fill:#91DC59;" d="M350.102,270.583v-47.091h-25.664v117.484h42.773v-46.195    C367.211,283.628,360.06,274.114,350.102,270.583z"/>
		<rect x="110" y="313.602" style="fill:#57555C;" width="292" height="88.398"/>
		<rect x="256" y="313.602" style="fill:#3C3A41;" width="146" height="88.398"/>
	</g>
</g>















</svg>
