<?xml version="1.0" encoding="iso-8859-1"?>
<!-- Generator: Adobe Illustrator 21.0.0, SVG Export Plug-In . SVG Version: 6.00 Build 0)  -->
<svg xmlns="http://www.w3.org/2000/svg" xmlns:xlink="http://www.w3.org/1999/xlink" version="1.1" id="Capa_1" x="0px" y="0px" viewBox="0 0 512 512" style="enable-background:new 0 0 512 512;" xml:space="preserve" width="512" height="512">
<g>
	<circle style="fill:#FEDB41;" cx="256" cy="256" r="256"/>
	<path style="fill:#FEA832;" d="M510.911,279.555L310.753,79.397l-6.451,26.639c-0.012-0.012-18.037-18.035-18.037-18.035   l-68.458,8.987l-17.413-18.707l-41.369,326.01l107.477,107.477C395.149,506.575,499.331,406.458,510.911,279.555z"/>
	<g>
		<path style="fill:#BF6016;" d="M325.103,326.436H186.314V183.998l27.936-79.273c6.324-17.944,22.875-30.001,41.185-30.001    c18.184,0,34.696,11.944,41.086,29.723l28.582,79.516V326.436z"/>
		<path style="fill:#994C11;" d="M255,74.733v251.703h70.103V183.963l-28.582-79.516c-6.391-17.778-22.902-29.723-41.086-29.723    C255.289,74.724,255.145,74.732,255,74.733z"/>
		<path style="fill:#FEDBAB;" d="M255,437.276c-39.484,0-70.511-9.893-92.22-29.404C137.047,384.746,124,347.929,124,298.445    c0-33.893,6.107-72.564,17.197-108.89c11.519-37.732,27.312-70.183,45.673-93.846l13.523-17.428l49.726,205.34    c0.706,2.915,3.004,4.951,5.588,4.951c2.585,0,4.882-2.036,5.588-4.951l49.456-204.225l13.52,17.804    C360.617,145.058,386,227.813,386,298.445c0,49.484-13.047,86.301-38.78,109.427C325.511,427.383,294.484,437.276,255,437.276z"/>
		<path style="fill:#FEC478;" d="M324.273,97.201l-13.52-17.804l-49.456,204.225c-0.706,2.915-3.004,4.951-5.588,4.951    c-0.239,0-0.475-0.023-0.708-0.057v148.76c39.484,0,70.511-9.893,92.22-29.404C372.953,384.746,386,347.929,386,298.445    C386,227.813,360.617,145.058,324.273,97.201z"/>
	</g>
</g>















</svg>
