<?xml version="1.0" encoding="iso-8859-1"?>
<!-- Generator: Adobe Illustrator 21.0.0, SVG Export Plug-In . SVG Version: 6.00 Build 0)  -->
<svg xmlns="http://www.w3.org/2000/svg" xmlns:xlink="http://www.w3.org/1999/xlink" version="1.1" id="Capa_1" x="0px" y="0px" viewBox="0 0 512 512" style="enable-background:new 0 0 512 512;" xml:space="preserve" width="512" height="512">
<g>
	<circle style="fill:#BF6016;" cx="256" cy="256" r="256"/>
	<path style="fill:#994C11;" d="M139.543,372.457l138.581,138.581c122.51-10.49,220.387-107.243,232.589-229.257L346.873,117.94   L139.543,372.457z"/>
	<g>
		<path style="fill:#FEDBAB;" d="M256,421c-43.795,0-85.154-17.239-116.457-48.543C108.24,341.154,91,299.795,91,256    s17.24-85.154,48.543-116.457C170.846,108.239,212.205,91,256,91c28.923,0,57.451,7.644,82.5,22.106l8.373,4.834l-65.754,113.89    c-2.519,4.363-0.839,8.215,0,9.668c0.839,1.453,3.335,4.834,8.373,4.834H421V256c0,43.795-17.24,85.154-48.543,116.457    C341.154,403.761,299.795,421,256,421z"/>
		<path style="fill:#FEC478;" d="M289.491,246.332c-5.038,0-7.534-3.381-8.373-4.834c-0.839-1.453-2.519-5.305,0-9.668    l65.754-113.89l-8.373-4.834C313.451,98.644,284.923,91,256,91v330c43.795,0,85.154-17.239,116.457-48.543    C403.76,341.154,421,299.795,421,256v-9.668H289.491z"/>
		<path style="fill:#FCBF27;" d="M256,382.328c-33.535,0-65.201-13.198-89.166-37.163c-23.964-23.965-37.163-55.631-37.163-89.166    s13.198-65.201,37.163-89.166c23.965-23.965,55.631-37.163,89.166-37.163c22.144,0,43.986,5.852,63.164,16.925l8.373,4.834    l-50.588,87.62c-1.265,2.19-0.421,4.125,0,4.854c0.421,0.73,1.674,2.427,4.204,2.427h101.175V256    c0,33.535-13.198,65.201-37.163,89.166C321.201,369.13,289.535,382.328,256,382.328z"/>
		<path style="fill:#FEA832;" d="M382.328,256v-9.668h-92.837c-5.038,0-7.534-3.381-8.373-4.834c-0.839-1.453-2.519-5.305,0-9.668    l46.418-80.399l0-0.001l-8.373-4.834c-19.178-11.072-41.02-16.925-63.164-16.925v252.656c33.535,0,65.201-13.198,89.166-37.163    C369.13,321.201,382.328,289.535,382.328,256z"/>
		<path style="fill:#FF4F24;" d="M199.281,206.371c-15.993,0-29.004-13.011-29.004-29.004s13.011-29.004,29.004-29.004    s29.004,13.011,29.004,29.004S215.274,206.371,199.281,206.371z"/>
		<path style="fill:#FF4F24;" d="M256,342.367c-15.993,0-29.004-13.011-29.004-29.004s13.011-29.004,29.004-29.004    s29.004,13.011,29.004,29.004S271.993,342.367,256,342.367z"/>
		<circle style="fill:#C2FC3A;" cx="256" cy="186.391" r="9.668"/>
		<circle style="fill:#994C11;" cx="314.652" cy="295.316" r="9.668"/>
		<path style="fill:#BF6016;" d="M240.529,271.044l-19.331-0.439l0.319-14.049c-4.033,0.797-8.226,0.119-11.87-1.988    c-4.583-2.649-7.642-7.175-8.391-12.416l-2.522-17.656l19.141-2.734l2.159,15.114c4.64-1.043,9.531-0.118,13.515,2.645    c4.744,3.291,7.498,8.702,7.367,14.475L240.529,271.044z"/>
		<path style="fill:#C2FC3A;" d="M208.949,299.184h-19.336c0-7.819-6.361-14.18-14.18-14.18v-19.336    C193.914,265.668,208.949,280.703,208.949,299.184z"/>
		<path style="fill:#FD3019;" d="M285.004,313.363c0-15.993-13.011-29.004-29.004-29.004v58.008    C271.993,342.367,285.004,329.356,285.004,313.363z"/>
		<path style="fill:#91DC59;" d="M265.668,186.391c0-5.339-4.329-9.668-9.668-9.668v19.336    C261.339,196.059,265.668,191.73,265.668,186.391z"/>
	</g>
</g>















</svg>
