<?xml version="1.0" encoding="iso-8859-1"?>
<!-- Generator: Adobe Illustrator 21.0.0, SVG Export Plug-In . SVG Version: 6.00 Build 0)  -->
<svg xmlns="http://www.w3.org/2000/svg" xmlns:xlink="http://www.w3.org/1999/xlink" version="1.1" id="Capa_1" x="0px" y="0px" viewBox="0 0 512 512" style="enable-background:new 0 0 512 512;" xml:space="preserve" width="512" height="512">
<g>
	<circle style="fill:#FD3019;" cx="256" cy="256" r="256"/>
	<path style="fill:#C91B10;" d="M509.751,289.979L314.269,94.497L106.613,364.974L253.609,511.97c0.798,0.007,1.591,0.03,2.391,0.03   C385.864,512,493.129,415.299,509.751,289.979z"/>
	<g>
		<path style="fill:#8C4402;" d="M175.058,226.519c-6.049-6.049-9.706-14.39-9.706-23.545l0-0.493    c0-9.601,4.141-18.732,11.36-25.056c7.213-6.317,16.797-9.216,26.296-7.954c16.506,2.194,31.021,2.349,45.683,0.49    c9.54-1.21,19.139,1.734,26.336,8.076c7.161,6.302,11.262,15.396,11.262,24.938c0,16.468-11.834,30.304-28.139,32.899    c-21.453,3.415-43.207,3.415-64.659,0C186.25,234.721,179.891,231.351,175.058,226.519z"/>
		<g>
			<path style="fill:#8C4402;" d="M227.109,183.633c-10.802,0-21.604-0.854-32.33-2.562c-16.305-2.596-28.139-16.432-28.139-32.9     v-0.497c0-9.597,4.141-18.728,11.361-25.052c7.212-6.317,16.795-9.217,26.296-7.954c16.505,2.193,31.021,2.348,45.683,0.489     c9.539-1.209,19.138,1.733,26.335,8.075c7.158,6.307,11.262,15.397,11.262,24.939c0,16.467-11.834,30.304-28.139,32.9     C248.713,182.779,237.911,183.633,227.109,183.633z"/>
			<path style="fill:#723802;" d="M276.316,123.233c-5.679-5.004-12.855-7.881-20.316-8.282v66.633     c1.147-0.163,2.294-0.331,3.439-0.513c16.305-2.596,28.139-16.432,28.139-32.9C287.578,138.63,283.473,129.54,276.316,123.233z"/>
		</g>
		<g>
			<path style="fill:#8C4402;" d="M331.922,428.026H180.078v-11.422c0-16.672-13.563-30.234-30.234-30.234v-20.156h212.313v20.156     c-16.672,0-30.234,13.563-30.234,30.234V428.026z"/>
			<path style="fill:#723802;" d="M256,428.026h75.922v-11.422c0-16.672,13.563-30.234,30.234-30.234v-20.156H256V428.026z"/>
		</g>
		<path style="fill:#FEA832;" d="M147.48,240.616c-8.555,0-17.038-3.312-23.512-9.785l-0.349-0.348    c-6.789-6.789-10.318-16.174-9.684-25.75c0.633-9.567,5.36-18.394,12.97-24.218c13.222-10.12,23.597-20.274,32.649-31.957    c5.89-7.601,14.759-12.308,24.333-12.912c9.52-0.608,18.85,2.924,25.597,9.671c11.644,11.644,13.06,29.796,3.366,43.161    c-12.754,17.584-28.137,32.966-45.721,45.721C161.193,238.502,154.314,240.616,147.48,240.616z"/>
		<path style="fill:#FE9922;" d="M320.5,240.576c-10.802,0-21.604-0.854-32.329-2.561c-16.305-2.596-28.139-16.432-28.139-32.9    v-0.498c0-9.597,4.141-18.727,11.36-25.051c7.213-6.317,16.799-9.217,26.296-7.954c16.504,2.193,31.02,2.349,45.684,0.489    c9.539-1.209,19.139,1.733,26.335,8.075c7.158,6.307,11.262,15.397,11.262,24.939c0,16.467-11.834,30.304-28.139,32.9    C342.104,239.723,331.302,240.576,320.5,240.576z"/>
		<path style="fill:#FFDF82;" d="M328.24,189.537c-6.835,0-13.714-2.114-19.65-6.42c-17.584-12.754-32.966-28.137-45.721-45.72    c-9.694-13.365-8.278-31.516,3.367-43.161l0.345-0.346c6.793-6.793,16.176-10.32,25.754-9.687    c9.567,0.633,18.394,5.361,24.218,12.97c10.121,13.223,20.275,23.597,31.957,32.65c7.601,5.89,12.308,14.758,12.912,24.332    c0.602,9.52-2.923,18.851-9.671,25.598C345.278,186.224,336.794,189.537,328.24,189.537z"/>
		<path style="fill:#BF6016;" d="M350.734,387.713H161.266c-42.604,0-77.266-34.661-77.266-77.266v-90.031h344v90.031    C428,353.052,393.339,387.713,350.734,387.713z"/>
		<path style="fill:#994C11;" d="M256,220.416v167.297h94.734c42.604,0,77.266-34.661,77.266-77.266v-90.031H256z"/>
		<g>
			<path style="fill:#FEDBAB;" d="M256,220.586c-10.802,0-21.604-0.854-32.33-2.562c-16.305-2.596-28.139-16.432-28.139-32.9v-0.497     c0-9.597,4.141-18.728,11.361-25.052c7.212-6.317,16.794-9.217,26.296-7.954c16.506,2.195,31.021,2.351,45.683,0.489     c9.54-1.211,19.139,1.733,26.336,8.075c7.158,6.307,11.262,15.397,11.262,24.939c0,16.467-11.834,30.304-28.139,32.9     C277.604,219.732,266.802,220.586,256,220.586z"/>
			<path style="fill:#FEC478;" d="M305.206,160.186c-7.197-6.342-16.796-9.286-26.336-8.075c-7.564,0.96-15.091,1.379-22.871,1.263     v67.212c10.802,0,21.604-0.854,32.33-2.562c16.305-2.596,28.139-16.432,28.139-32.9     C316.469,175.583,312.364,166.494,305.206,160.186z"/>
		</g>
	</g>
</g>















</svg>
