<?xml version="1.0" encoding="iso-8859-1"?>
<!-- Generator: Adobe Illustrator 21.0.0, SVG Export Plug-In . SVG Version: 6.00 Build 0)  -->
<svg xmlns="http://www.w3.org/2000/svg" xmlns:xlink="http://www.w3.org/1999/xlink" version="1.1" id="Capa_1" x="0px" y="0px" viewBox="0 0 512 512" style="enable-background:new 0 0 512 512;" xml:space="preserve" width="512" height="512">
<g>
	<circle style="fill:#0FAC00;" cx="256" cy="256" r="256"/>
	<path style="fill:#098100;" d="M511.833,264.795l-67.604-67.604l-72.284,37.061l-15.764-15.921l-24.585,3.981l-18.052-18.683   l-23.813,1.674l-18.088-18.695l-29.446,18.518l-31-31.126L88.636,278.839l226.326,226.326   C425.174,479.183,507.875,381.978,511.833,264.795z"/>
	<g>
		<rect x="200.17" y="244.974" style="fill:#57555C;" width="181.574" height="22.054"/>
		<rect x="200.17" y="256" style="fill:#3C3A41;" width="181.574" height="11.027"/>
		<path style="fill:#FCBF27;" d="M211.197,338l-12.414-1.575c-45.62-5.788-88.715-31.126-124.625-73.274L68.065,256l6.093-7.151    c35.91-42.148,79.004-67.486,124.624-73.275L211.197,174V338z"/>
		<path style="fill:#FEA832;" d="M68.065,256L68.065,256l6.092,7.151c35.91,42.148,79.004,67.486,124.625,73.274L211.197,338v-82    H68.065z"/>
		<path style="fill:#BF6016;" d="M444.229,314.81H418.5c-26.347,0-47.783-21.435-47.783-47.783v-22.054    c0-26.347,21.435-47.783,47.783-47.783h25.729v37.631l-1.597,2.635c-6.933,11.438-6.933,25.649,0,37.088l1.597,2.635V314.81z"/>
		<circle style="fill:#098100;" cx="156.063" cy="256" r="11.027"/>
		<polygon style="fill:#C8C6CE;" points="250.727,332.387 225.186,256 250.727,179.613 271.642,186.607 248.439,256     271.642,325.394   "/>
		<polygon style="fill:#C8C6CE;" points="292.629,315.366 272.779,256 292.629,196.635 313.544,203.628 296.033,256     313.544,308.372   "/>
		<polygon style="fill:#C8C6CE;" points="335.266,300.664 320.332,256 335.266,211.337 356.181,218.331 343.585,256 356.181,293.67       "/>
		<path style="fill:#994C11;" d="M437.433,256h-66.716v11.027c0,26.347,21.435,47.783,47.783,47.783h25.729v-37.631l-1.597-2.635    C439.166,268.825,437.433,262.413,437.433,256z"/>
		<polygon style="fill:#ADACB3;" points="271.642,325.394 248.439,256 225.186,256 250.727,332.387   "/>
		<polygon style="fill:#ADACB3;" points="313.544,308.372 296.033,256 272.779,256 292.629,315.366   "/>
		<polygon style="fill:#ADACB3;" points="356.181,293.67 343.585,256 320.332,256 335.266,300.664   "/>
		<path style="fill:#045901;" d="M145.036,256c0,6.09,4.937,11.027,11.027,11.027S167.09,262.09,167.09,256v0L145.036,256    L145.036,256z"/>
	</g>
</g>















</svg>
