<?xml version="1.0" encoding="iso-8859-1"?>
<!-- Generator: Adobe Illustrator 21.0.0, SVG Export Plug-In . SVG Version: 6.00 Build 0)  -->
<svg xmlns="http://www.w3.org/2000/svg" xmlns:xlink="http://www.w3.org/1999/xlink" version="1.1" id="Capa_1" x="0px" y="0px" viewBox="0 0 512 512" style="enable-background:new 0 0 512 512;" xml:space="preserve" width="512" height="512">
<g>
	<circle style="fill:#BF6016;" cx="256" cy="256" r="256"/>
	<path style="fill:#994C11;" d="M511.238,275.871c-72.081-72.093-182.406-182.429-182.69-182.663   c-0.239-0.197-80.252,13.007-78.193,14.777c0.31,0.357,5.13,5.159,5.2,5.234L272,278L137.473,421l89.333,89.333   C236.389,511.421,246.126,512,256,512C390.698,512,501.097,407.969,511.238,275.871z"/>
	<g>
		<path style="fill:#098100;" d="M366.871,421H212.184V213.117c0-19.002,15.459-34.46,34.46-34.46c2.38,0,4.556-0.986,6.125-2.776    c1.569-1.79,2.261-4.076,1.949-6.436c-2.191-16.554-2.191-33.341,0-49.895L258.496,91h62.063l3.778,28.549    c2.191,16.554,2.191,33.341,0,49.895c-0.312,2.36,0.38,4.646,1.949,6.436c1.569,1.791,3.744,2.776,6.125,2.776    c19.002,0,34.46,15.459,34.46,34.46V421z"/>
		<path style="fill:#045901;" d="M366.871,213.117c0-19.002-15.459-34.46-34.46-34.46c-2.38,0-4.556-0.986-6.125-2.776    c-1.569-1.79-2.261-4.076-1.949-6.436c2.191-16.554,2.191-33.341,0-49.895L320.559,91h-31.031v330h77.344V213.117z"/>
		<path style="fill:#0FAC00;" d="M322.398,110.336h-65.742c-5.339,0-9.668-4.328-9.668-9.668l0,0c0-5.339,4.328-9.668,9.668-9.668    h65.742c5.34,0,9.668,4.328,9.668,9.668l0,0C332.066,106.007,327.738,110.336,322.398,110.336z"/>
		<path style="fill:#64C37C;" d="M366.871,365.57h-77.344V230.219h77.344V365.57z"/>
		<g>
			<path style="fill:#E5E5E5;" d="M239.199,421H137.473l-14.345-190.781h130.414L239.199,421z"/>
			<polygon style="fill:#D9D9D9;" points="253.543,230.219 188.336,230.219 188.336,421 239.199,421    "/>
			<path style="fill:#FCBF27;" d="M239.199,421H137.473l-10.951-145.664h123.629L239.199,421z"/>
			<polygon style="fill:#FEA832;" points="188.336,421 239.199,421 250.151,275.336 188.336,275.336    "/>
		</g>
		<path style="fill:#098100;" d="M289.527,110.336h32.871c5.339,0,9.668-4.328,9.668-9.668S327.738,91,322.398,91h-32.871V110.336z"/>
	</g>
</g>















</svg>
