<?xml version="1.0" encoding="iso-8859-1"?>
<!-- Generator: Adobe Illustrator 21.0.0, SVG Export Plug-In . SVG Version: 6.00 Build 0)  -->
<svg xmlns="http://www.w3.org/2000/svg" xmlns:xlink="http://www.w3.org/1999/xlink" version="1.1" id="Capa_1" x="0px" y="0px" viewBox="0 0 512 512" style="enable-background:new 0 0 512 512;" xml:space="preserve" width="512" height="512">
<g>
	<circle style="fill:#0FAC00;" cx="256" cy="256" r="256"/>
	<path style="fill:#098100;" d="M87.966,304.323l205.009,205.009c107.294-15.524,193.042-97.578,214.064-202.992l-78.386-78.386   L87.966,304.323z"/>
	<g>
		<path style="fill:#BF6016;" d="M356.775,314H109.55V198h247.225c15.135,0,35.565,5.961,52.047,15.188    C429.959,225.02,441.6,240.225,441.6,256s-11.641,30.98-32.778,42.812C392.34,308.039,371.91,314,356.775,314z"/>
		<path style="fill:#994C11;" d="M109.55,314h247.225c15.135,0,35.565-5.961,52.047-15.188C429.959,286.98,441.6,271.775,441.6,256    H109.55V314z"/>
		<path style="fill:#FF4F24;" d="M110.275,314c-22.36,0-39.875-25.477-39.875-58s17.515-58,39.875-58s39.875,25.477,39.875,58    S132.635,314,110.275,314z"/>
		<path style="fill:#FD3019;" d="M110.275,314c22.36,0,39.875-25.477,39.875-58H70.4C70.4,288.523,87.915,314,110.275,314z"/>
		<path style="fill:#FEA832;" d="M394.591,206.414c-7.023-2.832-14.253-5.048-21.156-6.493l-3.537,8.489    c-13.482,33.222-42.512,62.06-86.286,85.714L248.921,314h43.676l1.356-0.741c48.335-26.119,80.667-58.644,96.099-96.67    L394.591,206.414z"/>
		<path style="fill:#FEA832;" d="M163.988,294.125L129.296,314h43.634l1.398-0.741c34.618-18.707,61.17-40.784,78.92-65.618    l-17.695-12.646C219.745,257.111,195.668,277.005,163.988,294.125z"/>
		<path style="fill:#FEDBAB;" d="M256,256c-21.987,0-39.875-21.14-39.875-47.125V198h79.75v10.875    C295.875,234.86,277.987,256,256,256z"/>
		<path style="fill:#FE9922;" d="M366.418,256h-29.48c-14.226,13.873-32.024,26.614-53.325,38.125L248.921,314h43.676l1.356-0.741    C324.637,296.678,348.862,277.512,366.418,256z"/>
		<path style="fill:#FE9922;" d="M246.849,256h-29.483c-14.223,13.85-32.08,26.615-53.378,38.125L129.296,314h43.634l1.398-0.741    C205.011,296.679,229.352,277.449,246.849,256z"/>
	</g>
</g>















</svg>
