<?xml version="1.0" encoding="iso-8859-1"?>
<!-- Generator: Adobe Illustrator 21.0.0, SVG Export Plug-In . SVG Version: 6.00 Build 0)  -->
<svg xmlns="http://www.w3.org/2000/svg" xmlns:xlink="http://www.w3.org/1999/xlink" version="1.1" id="Capa_1" x="0px" y="0px" viewBox="0 0 512 512" style="enable-background:new 0 0 512 512;" xml:space="preserve" width="512" height="512">
<g>
	<circle style="fill:#BF6016;" cx="256" cy="256" r="256"/>
	<path style="fill:#994C11;" d="M506.579,308.602l-219.51-219.51l-33.266,33.266l-22.302,13.01l-37.069-37.066L138,120.956v18.355   l23,22.289l-8.751,49.167l-10.845,17.262l9.505,9.55l0.302,117.41l-9.807,17.262c0,0,11.216,11.244,11.329,11.362l2.173,40.209   l87.839,87.839c4.39,0.224,8.809,0.338,13.254,0.338C379.354,512,482.32,424.751,506.579,308.602z"/>
	<g>
		
			<rect x="249.708" y="104.567" transform="matrix(0.7071 -0.7071 0.7071 0.7071 -0.1521 228.4328)" style="fill:#3C3A41;" width="51.917" height="19.666"/>
		<path style="fill:#FCBF27;" d="M285.5,181.267h-59v-29.5c0-16.267,13.234-29.5,29.5-29.5c16.267,0,29.5,13.233,29.5,29.5V181.267z    "/>
		<path style="fill:#FEA832;" d="M285.5,151.767c0-16.267-13.233-29.5-29.5-29.5v59h29.5V151.767z"/>
		<path style="fill:#FEA832;" d="M203.556,171.433h-19.667v-50.478c0-7.23-5.882-13.111-13.111-13.111    c-7.229,0-13.111,5.881-13.111,13.111v18.356H138v-18.356c0-18.074,14.704-32.778,32.778-32.778s32.778,14.704,32.778,32.778    V171.433z"/>
		<path style="fill:#C8C6CE;" d="M357.094,423.822H154.906l-3.329-61.582c-2.494-46.136-2.494-92.922,0-139.058l3.329-61.582    h202.188l3.329,61.582c2.494,46.136,2.494,92.922,0,139.058L357.094,423.822z"/>
		<path style="fill:#ADACB3;" d="M360.423,223.182l-3.329-61.582H256v262.222h101.094l3.329-61.582    C362.916,316.104,362.916,269.318,360.423,223.182z"/>
		<g>
			<path style="fill:#57555C;" d="M147.833,230.433h216.333c5.431,0,9.833-4.403,9.833-9.833c0-5.431-4.403-9.833-9.833-9.833     H147.833c-5.431,0-9.833,4.403-9.833,9.833C138,226.031,142.403,230.433,147.833,230.433z"/>
			<path style="fill:#57555C;" d="M364.167,354.989H147.833c-5.431,0-9.833,4.402-9.833,9.833c0,5.431,4.403,9.833,9.833,9.833     h216.333c5.431,0,9.833-4.403,9.833-9.833C374,359.391,369.597,354.989,364.167,354.989z"/>
		</g>
		<g>
			<path style="fill:#3C3A41;" d="M374,220.6c0-5.431-4.403-9.833-9.833-9.833H256v19.667h108.167     C369.597,230.433,374,226.031,374,220.6z"/>
			<path style="fill:#3C3A41;" d="M364.167,354.989H256v19.667h108.167c5.431,0,9.833-4.403,9.833-9.833     C374,359.391,369.597,354.989,364.167,354.989z"/>
		</g>
	</g>
</g>















</svg>
