<?xml version="1.0" encoding="iso-8859-1"?>
<!-- Generator: Adobe Illustrator 21.0.0, SVG Export Plug-In . SVG Version: 6.00 Build 0)  -->
<svg xmlns="http://www.w3.org/2000/svg" xmlns:xlink="http://www.w3.org/1999/xlink" version="1.1" id="Capa_1" x="0px" y="0px" viewBox="0 0 512 512" style="enable-background:new 0 0 512 512;" xml:space="preserve" width="512" height="512">
<g>
	<circle style="fill:#FD3019;" cx="256" cy="256" r="256"/>
	<path style="fill:#C91B10;" d="M310.101,506.253c113.674-24.459,199.295-124.383,201.83-244.761L332,81.562l-21.714,30.536   l-1.82,0.607l-41.609-42l-21.714,54.857l-43.428-44l-5.409,300.636c0,0,48.556,48.563,48.838,48.842v10.256L310.101,506.253z"/>
	<g>
		<rect x="180" y="81.562" style="fill:#BF6016;" width="21.714" height="38.362"/>
		<rect x="310.286" y="81.562" style="fill:#994C11;" width="21.714" height="38.362"/>
		<g>
			<path style="fill:#FFDF82;" d="M272.363,124.739c-6.393,2.131-11.957,5.77-16.363,10.437c-4.407-4.667-9.971-8.306-16.363-10.437     L180,104.86v64.829c0,23.403,14.917,44.099,37.119,51.5L256,234.149l38.881-12.96c22.202-7.401,37.119-28.097,37.119-51.5V104.86     L272.363,124.739z"/>
			<path style="fill:#FFBF7A;" d="M272.363,124.739c-6.393,2.131-11.957,5.77-16.363,10.437v98.973l38.881-12.96     c22.202-7.401,37.119-28.097,37.119-51.5V104.86L272.363,124.739z"/>
		</g>
		<g>
			<path style="fill:#FEDB41;" d="M272.363,182.644c-6.393,2.131-11.957,5.77-16.363,10.437c-4.407-4.667-9.971-8.306-16.363-10.437     L180,162.765v64.829c0,23.403,14.917,44.099,37.119,51.5L256,292.054l38.881-12.96c22.202-7.401,37.119-28.097,37.119-51.5     v-64.829L272.363,182.644z"/>
			<path style="fill:#FCBF27;" d="M272.363,182.644c-6.393,2.131-11.957,5.77-16.363,10.437v98.973l38.881-12.96     c22.202-7.401,37.119-28.097,37.119-51.5v-64.829L272.363,182.644z"/>
		</g>
		<g>
			<path style="fill:#FCBF27;" d="M272.363,240.548c-6.393,2.131-11.957,5.77-16.363,10.437c-4.407-4.667-9.971-8.306-16.363-10.437     L180,220.67v64.829c0,23.403,14.917,44.099,37.119,51.5L256,349.959l38.881-12.96c22.202-7.401,37.119-28.097,37.119-51.5V220.67     L272.363,240.548z"/>
			<path style="fill:#FEA832;" d="M272.363,240.548c-6.393,2.131-11.957,5.77-16.363,10.437v98.973l38.881-12.96     c22.202-7.401,37.119-28.097,37.119-51.5V220.67L272.363,240.548z"/>
		</g>
		<g>
			<path style="fill:#FEA832;" d="M272.363,298.453c-6.393,2.131-11.957,5.77-16.363,10.437c-4.407-4.667-9.971-8.306-16.363-10.437     L180,278.575v64.829c0,23.403,14.917,44.099,37.119,51.5L256,407.864l38.881-12.96c22.202-7.401,37.119-28.097,37.119-51.5     v-64.829L272.363,298.453z"/>
			<path style="fill:#FE9922;" d="M272.363,298.453c-6.393,2.131-11.957,5.77-16.363,10.437v98.973l38.881-12.96     c22.202-7.401,37.119-28.097,37.119-51.5v-64.829L272.363,298.453z"/>
		</g>
		<rect x="245.143" y="70.705" style="fill:#BF6016;" width="21.714" height="370.59"/>
		<rect x="256" y="70.705" style="fill:#994C11;" width="10.857" height="370.59"/>
	</g>
</g>















</svg>
