<?xml version="1.0" encoding="iso-8859-1"?>
<!-- Generator: Adobe Illustrator 21.0.0, SVG Export Plug-In . SVG Version: 6.00 Build 0)  -->
<svg xmlns="http://www.w3.org/2000/svg" xmlns:xlink="http://www.w3.org/1999/xlink" version="1.1" id="Capa_1" x="0px" y="0px" viewBox="0 0 512 512" style="enable-background:new 0 0 512 512;" xml:space="preserve" width="512" height="512">
<g>
	<circle style="fill:#BF6016;" cx="256" cy="256" r="256"/>
	<path style="fill:#994C11;" d="M508.683,297.204l-77.77-77.77l-45.962-7.797c-0.102-0.102-22.307-22.305-22.307-22.305   l-63.708-4.334l-1.957-1.953L74.29,236.48l7.797,54.247l39.805,39.814l5.574,7.081l170.873,170.873   C406.177,490.545,491.206,405.201,508.683,297.204z"/>
	<g>
		<path style="fill:#C8C6CE;" d="M312.784,232.931H199.216v-10.647c0-31.311,25.473-56.784,56.784-56.784    s56.784,25.473,56.784,56.784V232.931z"/>
		<path style="fill:#E5E5E5;" d="M231.157,232.931h-95.114v-10.647c0-26.223,21.334-47.557,47.557-47.557    s47.557,21.334,47.557,47.557V232.931z"/>
		<path style="fill:#D9D9D9;" d="M375.957,232.931h-95.114v-10.647c0-26.223,21.334-47.557,47.557-47.557    s47.557,21.334,47.557,47.557V232.931z"/>
		<path style="fill:#ADACB3;" d="M412.867,297.524h-39.749v-85.886h39.749c13.698,0,24.843,11.145,24.843,24.843v36.2    C437.71,286.379,426.565,297.524,412.867,297.524z M394.412,276.229h18.455c1.957,0,3.549-1.592,3.549-3.549v-36.2    c0-1.957-1.592-3.549-3.549-3.549h-18.455V276.229z"/>
		<path style="fill:#FEA832;" d="M362.471,346.5h-85.176c-17.613,0-31.941-14.328-31.941-31.941V211.637h149.059v102.922    C394.412,332.172,380.083,346.5,362.471,346.5z"/>
		<path style="fill:#FE9922;" d="M319.882,211.637V346.5h42.588c17.613,0,31.941-14.328,31.941-31.941V211.637H319.882z"/>
		<path style="fill:#C8C6CE;" d="M138.882,297.524H99.133c-13.698,0-24.843-11.145-24.843-24.843v-36.2    c0-13.698,11.145-24.843,24.843-24.843h39.749V297.524z M99.133,232.931c-1.957,0-3.549,1.592-3.549,3.549v36.2    c0,1.957,1.592,3.549,3.549,3.549h18.455v-43.298H99.133z"/>
		<path style="fill:#FEDB41;" d="M234.706,346.5h-85.176c-17.613,0-31.941-14.328-31.941-31.941V211.637h149.059v102.922    C266.647,332.172,252.319,346.5,234.706,346.5z"/>
		<path style="fill:#FCBF27;" d="M192.118,211.637V346.5h42.588c17.613,0,31.941-14.328,31.941-31.941V211.637H192.118z"/>
		<path style="fill:#FEA832;" d="M341.176,303.912L341.176,303.912c-5.88,0-10.647-4.767-10.647-10.647v-28.392    c0-5.88,4.767-10.647,10.647-10.647l0,0c5.88,0,10.647,4.767,10.647,10.647v28.392    C351.824,299.145,347.057,303.912,341.176,303.912z"/>
		<path style="fill:#FCBF27;" d="M298.588,303.912L298.588,303.912c-5.88,0-10.647-4.767-10.647-10.647v-28.392    c0-5.88,4.767-10.647,10.647-10.647l0,0c5.88,0,10.647,4.767,10.647,10.647v28.392    C309.235,299.145,304.468,303.912,298.588,303.912z"/>
		<path style="fill:#FCBF27;" d="M170.824,303.912L170.824,303.912c5.88,0,10.647-4.767,10.647-10.647v-28.392    c0-5.88-4.767-10.647-10.647-10.647l0,0c-5.88,0-10.647,4.767-10.647,10.647v28.392    C160.176,299.145,164.943,303.912,170.824,303.912z"/>
		<path style="fill:#FEA832;" d="M213.412,303.912L213.412,303.912c5.88,0,10.647-4.767,10.647-10.647v-28.392    c0-5.88-4.767-10.647-10.647-10.647l0,0c-5.88,0-10.647,4.767-10.647,10.647v28.392    C202.765,299.145,207.532,303.912,213.412,303.912z"/>
	</g>
</g>















</svg>
