<?xml version="1.0" encoding="iso-8859-1"?>
<!-- Generator: Adobe Illustrator 21.0.0, SVG Export Plug-In . SVG Version: 6.00 Build 0)  -->
<svg xmlns="http://www.w3.org/2000/svg" xmlns:xlink="http://www.w3.org/1999/xlink" version="1.1" id="Capa_1" x="0px" y="0px" viewBox="0 0 512 512" style="enable-background:new 0 0 512 512;" xml:space="preserve" width="512" height="512">
<g>
	<circle style="fill:#0FAC00;" cx="256" cy="256" r="256"/>
	<path style="fill:#098100;" d="M509.135,294.384L307.751,93L273,229L163,339l6,22c0,0-10.011,4.528-10.497,5.013L136,343.51   L125,337l-2.515,42.52l132.483,132.467c0.345,0.001,0.687,0.013,1.032,0.013C384.339,512,490.613,417.559,509.135,294.384z"/>
	<g>
		<g>
			
				<rect x="306.807" y="158.587" transform="matrix(0.7071 -0.7071 0.7071 0.7071 -21.104 285.3263)" style="fill:#C8C6CE;" width="54.121" height="19.102"/>
			<path style="fill:#C8C6CE;" d="M122.485,379.52c-13.654-13.654-13.654-35.871,0-49.525l13.507,13.507     c-6.206,6.206-6.206,16.305,0,22.511c6.206,6.206,16.305,6.206,22.511,0c6.206-6.206,6.206-16.305,0-22.511l-6.753-6.753     l48.174-48.174l13.507,13.507l-35.604,35.604c7.436,13.329,5.497,30.521-5.817,41.836     C158.356,393.174,136.139,393.174,122.485,379.52z"/>
			
				<rect x="310.183" y="166.739" transform="matrix(0.7071 -0.7071 0.7071 0.7071 -22.5027 288.703)" style="fill:#ADACB3;" width="54.121" height="9.551"/>
			<path style="fill:#ADACB3;" d="M177.828,337.684l35.604-35.604l-6.753-6.753l-48.174,48.174c6.206,6.206,6.206,16.305,0,22.511     c-6.206,6.206-16.305,6.206-22.511,0l-13.507,13.507c13.654,13.654,35.871,13.654,49.525,0     C183.324,368.206,185.263,351.014,177.828,337.684z"/>
			<path style="fill:#8C4402;" d="M276.463,234.547l-9.005-9.005c-11.172-11.172-11.172-29.349,0-40.521l9.005-9.005     c11.172-11.172,29.349-11.171,40.521,0l9.005,9.005c11.172,11.172,11.172,29.349,0,40.521l-9.005,9.005     C305.812,245.718,287.635,245.718,276.463,234.547z"/>
			<path style="fill:#BF6016;" d="M240.445,270.565l-9.005-9.005c-11.172-11.172-11.172-29.349,0-40.521l9.005-9.005     c11.172-11.172,29.349-11.171,40.521,0l9.005,9.005c11.172,11.172,11.172,29.349,0,40.521l-9.005,9.005     C269.794,281.737,251.616,281.736,240.445,270.565z"/>
			<path style="fill:#8C4402;" d="M204.427,306.583l-9.005-9.005c-11.172-11.172-11.172-29.349,0-40.521l9.005-9.005     c11.172-11.172,29.349-11.172,40.521,0l9.005,9.005c11.172,11.172,11.172,29.349,0,40.521l-9.005,9.005     C233.776,317.755,215.598,317.755,204.427,306.583z"/>
			<path style="fill:#723802;" d="M325.988,185.022l-4.502-4.502l-49.525,49.525l4.502,4.502c11.172,11.172,29.349,11.172,40.521,0     l9.005-9.005C337.16,214.37,337.16,196.193,325.988,185.022z"/>
			<path style="fill:#994C11;" d="M289.97,221.04l-4.502-4.502l-49.525,49.525l4.502,4.502c11.172,11.171,29.349,11.172,40.521,0     l9.005-9.005C301.142,250.389,301.142,232.211,289.97,221.04z"/>
			<path style="fill:#723802;" d="M253.952,257.058l-4.502-4.502l-49.525,49.525l4.502,4.502c11.171,11.172,29.349,11.172,40.521,0     l9.005-9.005C265.124,286.407,265.123,268.23,253.952,257.058z"/>
		</g>
		<g>
			<rect x="288.649" y="93" style="fill:#C8C6CE;" width="19.102" height="60.488"/>
			<path style="fill:#C8C6CE;" d="M298.2,419c-19.31,0-35.02-15.71-35.02-35.02h19.102c0,8.777,7.141,15.918,15.918,15.918     c8.777,0,15.918-7.141,15.918-15.918s-7.141-15.918-15.918-15.918h-9.551v-61.762h19.102v43.984     c14.683,4.167,25.469,17.695,25.469,33.696C333.219,403.29,317.51,419,298.2,419z"/>
			<rect x="298.2" y="93" style="fill:#ADACB3;" width="9.551" height="60.488"/>
			<path style="fill:#ADACB3;" d="M307.751,350.285v-43.984H298.2v61.762c8.777,0,15.918,7.141,15.918,15.918     s-7.141,15.918-15.918,15.918V419c19.31,0,35.02-15.71,35.02-35.02C333.219,367.98,322.434,354.452,307.751,350.285z"/>
			<path style="fill:#BF6016;" d="M304.567,213.977h-12.734c-15.799,0-28.652-12.853-28.652-28.652V172.59     c0-15.799,12.853-28.652,28.652-28.652h12.734c15.799,0,28.652,12.853,28.652,28.652v12.734     C333.219,201.123,320.366,213.977,304.567,213.977z"/>
			<path style="fill:#8C4402;" d="M304.567,264.914h-12.734c-15.799,0-28.652-12.853-28.652-28.652v-12.734     c0-15.799,12.853-28.652,28.652-28.652h12.734c15.799,0,28.652,12.853,28.652,28.652v12.734     C333.219,252.061,320.366,264.914,304.567,264.914z"/>
			<path style="fill:#BF6016;" d="M304.567,315.852h-12.734c-15.799,0-28.652-12.853-28.652-28.652v-12.734     c0-15.799,12.853-28.652,28.652-28.652h12.734c15.799,0,28.652,12.853,28.652,28.652v12.734     C333.219,302.998,320.366,315.852,304.567,315.852z"/>
			<path style="fill:#994C11;" d="M304.567,143.938H298.2v70.039h6.367c15.799,0,28.652-12.853,28.652-28.652V172.59     C333.219,156.791,320.366,143.938,304.567,143.938z"/>
			<path style="fill:#723802;" d="M304.567,194.875H298.2v70.039h6.367c15.799,0,28.652-12.853,28.652-28.652v-12.734     C333.219,207.728,320.366,194.875,304.567,194.875z"/>
			<path style="fill:#994C11;" d="M304.567,245.813H298.2v70.039h6.367c15.799,0,28.652-12.853,28.652-28.652v-12.734     C333.219,258.666,320.366,245.813,304.567,245.813z"/>
		</g>
	</g>
</g>















</svg>
