<?xml version="1.0" encoding="iso-8859-1"?>
<!-- Generator: Adobe Illustrator 21.0.0, SVG Export Plug-In . SVG Version: 6.00 Build 0)  -->
<svg xmlns="http://www.w3.org/2000/svg" xmlns:xlink="http://www.w3.org/1999/xlink" version="1.1" id="Capa_1" x="0px" y="0px" viewBox="0 0 512 512" style="enable-background:new 0 0 512 512;" xml:space="preserve" width="512" height="512">
<g>
	<circle style="fill:#0FAC00;" cx="256" cy="256" r="256"/>
	<path style="fill:#098100;" d="M263.007,511.901c132.684-3.566,240.167-108.091,248.458-239.545L331.518,92.409l-150.046,48.027   l17.823,17.833l13.476,51.658l-34.105,217.634L263.007,511.901z"/>
	<g>
		<rect x="198.2" y="330.128" style="fill:#8C4402;" width="115.6" height="20.4"/>
		<rect x="256" y="330.128" style="fill:#723802;" width="57.8" height="20.4"/>
		
			<rect x="205" y="138.419" transform="matrix(0.9676 -0.2524 0.2524 0.9676 -38.1712 60.1121)" style="fill:#8C4402;" width="20.4" height="80.817"/>
		<path style="fill:#BF6016;" d="M307,149.928H205c-18.747,0-34-15.252-34-34s15.253-34,34-34h102c18.747,0,34,15.252,34,34    S325.747,149.928,307,149.928z"/>
		
			<rect x="256.391" y="168.628" transform="matrix(0.2524 -0.9676 0.9676 0.2524 48.8471 420.8792)" style="fill:#723802;" width="80.817" height="20.4"/>
		<path style="fill:#994C11;" d="M307,81.928h-51v68h51c18.747,0,34-15.252,34-34S325.747,81.928,307,81.928z"/>
		<path style="fill:#FCBF27;" d="M324,268.928H188v-23.8c0-20.622,16.778-37.4,37.4-37.4h61.2c20.622,0,37.4,16.778,37.4,37.4    V268.928z"/>
		<path style="fill:#FEA832;" d="M324,245.128c0-20.622-16.778-37.4-37.4-37.4H256v61.2h68V245.128z"/>
		<path style="fill:#BF6016;" d="M316.425,420.727l-12.048-151.799h-96.755l-12.048,151.799c-0.446,5.616-5.359,9.807-10.975,9.361    h0c-5.616-0.446-9.807-5.359-9.361-10.975l13.539-170.585h134.445l13.539,170.585c0.446,5.616-3.746,10.53-9.361,10.975h0    C321.784,430.533,316.871,426.342,316.425,420.727z"/>
		<path style="fill:#994C11;" d="M256,248.528v20.4h48.377l12.048,151.799c0.446,5.616,5.359,9.807,10.975,9.361h0    c5.616-0.446,9.807-5.359,9.361-10.975l-13.539-170.585H256z"/>
	</g>
</g>















</svg>
