<?xml version="1.0" encoding="iso-8859-1"?>
<!-- Generator: Adobe Illustrator 21.0.0, SVG Export Plug-In . SVG Version: 6.00 Build 0)  -->
<svg xmlns="http://www.w3.org/2000/svg" xmlns:xlink="http://www.w3.org/1999/xlink" version="1.1" id="Capa_1" x="0px" y="0px" viewBox="0 0 512 512" style="enable-background:new 0 0 512 512;" xml:space="preserve" width="512" height="512">
<g>
	<circle style="fill:#FD3019;" cx="256" cy="256" r="256"/>
	<path style="fill:#C91B10;" d="M510.289,285.58L338.952,114.243l-74.619,83.409l5.691,5.719v4.896   c-0.293-0.304-41.896-41.892-41.896-41.892l-48.604,69.118L96,325.727l185.051,185.052   C400.92,499.135,496.566,404.828,510.289,285.58z"/>
	<g>
		<path style="fill:#57555C;" d="M231.843,247.211h-51.374l-4.627-57.377c-0.68-8.438,2.222-16.845,7.962-23.067    c5.74-6.222,13.887-9.79,22.353-9.79s16.613,3.568,22.353,9.79c5.74,6.222,8.642,14.63,7.962,23.067l0,0L231.843,247.211z"/>
		<path style="fill:#3C3A41;" d="M228.509,166.766c-5.74-6.222-13.887-9.79-22.353-9.79v90.234h25.687l4.627-57.377l0,0    C237.151,181.396,234.249,172.989,228.509,166.766z"/>
		<path style="fill:#D9D9D9;" d="M287.602,288.227h-66.797v-52.734h66.797V288.227z"/>
		<path style="fill:#E5E5E5;" d="M148.734,325.727H96v-34.57c0-30.693,24.971-55.664,55.664-55.664h39.844v52.734h-39.844    c-1.615,0-2.93,1.314-2.93,2.93V325.727z"/>
		<path style="fill:#FCBF27;" d="M319.828,158.734c-14.539,0-26.367-11.828-26.367-26.367S305.289,106,319.828,106    s26.367,11.828,26.367,26.367S334.367,158.734,319.828,158.734z"/>
		<path style="fill:#FEA832;" d="M346.195,132.367c0-14.539-11.828-26.367-26.367-26.367v52.734    C334.367,158.734,346.195,146.906,346.195,132.367z"/>
		<path style="fill:#8C4402;" d="M363.773,199.75h-87.891v-14.648c0-24.232,19.714-43.945,43.945-43.945    s43.945,19.714,43.945,43.945V199.75z"/>
		<path style="fill:#723802;" d="M363.773,185.102c0-24.232-19.714-43.945-43.945-43.945v58.594h43.945V185.102z"/>
		<path style="fill:#C8C6CE;" d="M369.633,370.844h-99.609V182.172h99.609V370.844z"/>
		<rect x="319.828" y="182.172" style="fill:#ADACB3;" width="49.805" height="188.672"/>
		<path style="fill:#FEDB41;" d="M369.633,199.75h-99.609c-4.854,0-8.789-3.935-8.789-8.789l0,0c0-4.854,3.935-8.789,8.789-8.789    h99.609c4.854,0,8.789,3.935,8.789,8.789l0,0C378.422,195.815,374.487,199.75,369.633,199.75z"/>
		<path style="fill:#8C4402;" d="M396,406H243.656v-52.734H396V406z"/>
		<path style="fill:#FCBF27;" d="M206.156,294.086c-17.77,0-32.227-14.457-32.227-32.227s14.457-32.227,32.227-32.227    s32.227,14.457,32.227,32.227S223.926,294.086,206.156,294.086z"/>
		<rect x="319.828" y="353.266" style="fill:#723802;" width="76.172" height="52.734"/>
		<path style="fill:#FCBF27;" d="M369.633,182.172h-49.805v17.578h49.805c4.854,0,8.789-3.935,8.789-8.789    S374.487,182.172,369.633,182.172z"/>
		<path style="fill:#FEA832;" d="M206.156,229.633v64.453c17.77,0,32.227-14.457,32.227-32.227S223.926,229.633,206.156,229.633z"/>
	</g>
</g>















</svg>
