<?xml version="1.0" encoding="iso-8859-1"?>
<!-- Generator: Adobe Illustrator 21.0.0, SVG Export Plug-In . SVG Version: 6.00 Build 0)  -->
<svg xmlns="http://www.w3.org/2000/svg" xmlns:xlink="http://www.w3.org/1999/xlink" version="1.1" id="Capa_1" x="0px" y="0px" viewBox="0 0 512 512" style="enable-background:new 0 0 512 512;" xml:space="preserve" width="512" height="512">
<g>
	<circle style="fill:#0FAC00;" cx="256" cy="256" r="256"/>
	<path style="fill:#098100;" d="M508.883,295.996L351.404,138.518L145.609,413l98.724,98.724C248.202,511.898,252.089,512,256,512   C383.778,512,489.68,418.382,508.883,295.996z"/>
	<g>
		<path style="fill:#8C4402;" d="M366.391,413H145.609v-85.859h220.781V413z"/>
		<rect x="256" y="327.141" style="fill:#723802;" width="110.391" height="85.859"/>
		<path style="fill:#FEDBAB;" d="M256,368.844c-36.039,0-69.921-14.034-95.404-39.518c-25.484-25.484-39.518-59.365-39.518-95.404    s14.034-69.921,39.518-95.404S219.961,99,256,99s69.921,14.034,95.404,39.518c25.483,25.484,39.518,59.365,39.518,95.404    s-14.034,69.921-39.518,95.404C325.921,354.81,292.039,368.844,256,368.844z"/>
		<path style="fill:#FEC478;" d="M351.404,138.518C325.921,113.034,292.039,99,256,99v269.844c36.039,0,69.921-14.034,95.404-39.518    c25.483-25.484,39.518-59.365,39.518-95.404S376.888,164.001,351.404,138.518z"/>
		<path style="fill:#994C11;" d="M309.662,357.783c6.36-2.757,12.511-6.004,18.398-9.738V119.798    c-5.887-3.733-12.038-6.981-18.398-9.738V357.783z"/>
		<path style="fill:#BF6016;" d="M246.801,368.529c3.049,0.204,6.115,0.315,9.199,0.315c3.084,0,6.151-0.111,9.199-0.315V99.315    C262.151,99.111,259.084,99,256,99c-3.084,0-6.151,0.111-9.199,0.315V368.529z"/>
		<path style="fill:#BF6016;" d="M183.939,348.045c5.887,3.733,12.038,6.981,18.398,9.738V110.061    c-6.36,2.757-12.511,6.004-18.398,9.738V348.045z"/>
		<path style="fill:#994C11;" d="M260.075,368.777c0.473-0.014,0.944-0.033,1.416-0.052c1.239-0.051,2.476-0.114,3.709-0.196V99.315    c-1.232-0.082-2.468-0.145-3.707-0.196c-0.472-0.019-0.945-0.038-1.418-0.052c-0.407-0.013-0.814-0.023-1.221-0.032    c-0.95-0.02-1.9-0.035-2.853-0.035v269.844c0.953,0,1.903-0.015,2.853-0.035C259.261,368.8,259.668,368.79,260.075,368.777z"/>
		<path style="fill:#3C3A41;" d="M265.199,259.066h-18.398c0-20.628,16.782-37.41,37.41-37.41h6.133v18.398h-6.133    C273.728,240.055,265.199,248.583,265.199,259.066z"/>
		<path style="fill:#FEDB41;" d="M256,311.195c-16.908,0-30.664-13.756-30.664-30.664s13.756-30.664,30.664-30.664    s30.664,13.756,30.664,30.664S272.908,311.195,256,311.195z"/>
		<path style="fill:#FCBF27;" d="M256,249.867v61.328c16.908,0,30.664-13.756,30.664-30.664S272.908,249.867,256,249.867z"/>
	</g>
</g>















</svg>
