<?xml version="1.0" encoding="iso-8859-1"?>
<!-- Generator: Adobe Illustrator 21.0.0, SVG Export Plug-In . SVG Version: 6.00 Build 0)  -->
<svg xmlns="http://www.w3.org/2000/svg" xmlns:xlink="http://www.w3.org/1999/xlink" version="1.1" id="Capa_1" x="0px" y="0px" viewBox="0 0 512 512" style="enable-background:new 0 0 512 512;" xml:space="preserve" width="512" height="512">
<g>
	<circle style="fill:#FD3019;" cx="256" cy="256" r="256"/>
	<path style="fill:#C91B10;" d="M501.538,328.608l-207.53-207.53L229,116l-43.781,124.664L105,258.359l56.625,56l22.132,71.509   l121.398,121.398C399.154,488.983,474.766,419.278,501.538,328.608z"/>
	<g>
		<path style="fill:#FEDB41;" d="M309.086,183.449h-17.695v-25.363c0-19.514-15.876-35.391-35.391-35.391    s-35.391,15.876-35.391,35.391v25.363h-17.695v-25.363C202.914,128.814,226.728,105,256,105s53.086,23.814,53.086,53.086V183.449z    "/>
		<path style="fill:#FCBF27;" d="M291.391,158.086v25.363h17.695v-25.363C309.086,128.814,285.272,105,256,105v17.695    C275.514,122.695,291.391,138.572,291.391,158.086z"/>
		<path style="fill:#91DC59;" d="M326.781,258.359H185.219v-83.758h141.563V258.359z"/>
		<rect x="256" y="174.602" style="fill:#64C37C;" width="70.781" height="83.758"/>
		<path style="fill:#79D60B;" d="M276.645,407h-41.289c-40.655,0-73.73-33.076-73.73-73.73v-92.605h188.75v92.605    C350.375,373.924,317.299,407,276.645,407z"/>
		<path style="fill:#33BC00;" d="M256,240.664V407h20.645c40.655,0,73.73-33.076,73.73-73.73v-92.605H256z"/>
		<path style="fill:#0FAC00;" d="M267.797,346.836h-23.594c-21.14,0-38.34-17.199-38.34-38.34v-32.441h100.273v32.441    C306.137,329.637,288.937,346.836,267.797,346.836z"/>
		<rect x="105" y="240.664" style="fill:#FEDB41;" width="302" height="17.695"/>
		<rect x="256" y="240.664" style="fill:#FCBF27;" width="151" height="17.695"/>
		<path style="fill:#098100;" d="M256,346.836h11.797c21.14,0,38.34-17.199,38.34-38.34v-32.441H256V346.836z"/>
	</g>
</g>















</svg>
