<?xml version="1.0" encoding="iso-8859-1"?>
<!-- Generator: Adobe Illustrator 21.0.0, SVG Export Plug-In . SVG Version: 6.00 Build 0)  -->
<svg xmlns="http://www.w3.org/2000/svg" xmlns:xlink="http://www.w3.org/1999/xlink" version="1.1" id="Capa_1" x="0px" y="0px" viewBox="0 0 512 512" style="enable-background:new 0 0 512 512;" xml:space="preserve" width="512" height="512">
<g>
	<circle style="fill:#FD3019;" cx="256" cy="256" r="256"/>
	<path style="fill:#C91B10;" d="M510.232,286.083L324.319,100.17L194.33,286.367h-6.856l-34.085-34.142l1.411,40.846v13.101   l-47.531,29.707v17.824l52,51.492L148.199,425l86.073,86.073C241.437,511.675,248.68,512,256,512   C387.206,512,495.338,413.289,510.232,286.083z"/>
	<g>
		<path style="fill:#FEA832;" d="M127.074,353.703H107.27v-17.824c0-16.381,13.327-29.707,29.707-29.707h27.727v19.805h-27.727    c-5.46,0-9.902,4.442-9.902,9.902V353.703z"/>
		<polygon style="fill:#BF6016;" points="174.605,308.152 154.801,308.152 154.801,293.071 136.407,262.415 153.39,252.225     174.605,287.586   "/>
		<path style="fill:#C8C6CE;" d="M214.215,345.781h-29.707c-16.38,0-29.707-13.326-29.707-29.707s13.327-29.707,29.707-29.707    h29.707V345.781z"/>
		<path style="fill:#57555C;" d="M336.344,146.414H176.586V129.91c0-23.661,19.249-42.91,42.91-42.91h73.938    c23.661,0,42.91,19.25,42.91,42.91V146.414z"/>
		<path style="fill:#3C3A41;" d="M293.434,87h-36.969v59.414h79.879V129.91C336.344,106.25,317.094,87,293.434,87z"/>
		<path style="fill:#FEDBAB;" d="M318.52,306.172H194.41v-19.177l-17.824-139.953v-20.433h159.758v20.433L318.52,286.995V306.172z"/>
		<polygon style="fill:#FEC478;" points="256.465,126.609 256.465,306.172 318.52,306.172 318.52,286.995 336.344,147.042     336.344,126.609   "/>
		<path style="fill:#FCBF27;" d="M318.52,306.172H194.41v-19.177l-15.063-118.27l14.687,4.536    c21.72,6.707,42.997,3.778,65.523,0.676c20.745-2.856,42.196-5.811,64.405-0.881l8.819,1.957L318.52,286.995V306.172z"/>
		<path style="fill:#FEA832;" d="M259.557,173.937c-1.034,0.142-2.064,0.284-3.093,0.425v131.81h62.055v-19.177l14.262-111.982    l-8.819-1.957C301.754,168.126,280.302,171.081,259.557,173.937z"/>
		<path style="fill:#E5E5E5;" d="M348.227,425H164.703v-19.805c16.38,0,29.707-13.326,29.707-29.707v-89.121H318.52v89.121    c0,16.381,13.327,29.707,29.707,29.707V425z"/>
		<path style="fill:#D9D9D9;" d="M348.227,405.195c-16.38,0-29.707-13.326-29.707-29.707v-89.121h-62.055V425h91.762V405.195z"/>
		<rect x="148.199" y="405.195" style="fill:#57555C;" width="216.531" height="19.805"/>
		<rect x="256.465" y="405.195" style="fill:#3C3A41;" width="108.266" height="19.805"/>
	</g>
</g>















</svg>
