<?xml version="1.0" encoding="iso-8859-1"?>
<!-- Generator: Adobe Illustrator 21.0.0, SVG Export Plug-In . SVG Version: 6.00 Build 0)  -->
<svg xmlns="http://www.w3.org/2000/svg" xmlns:xlink="http://www.w3.org/1999/xlink" version="1.1" id="Capa_1" x="0px" y="0px" viewBox="0 0 512 512" style="enable-background:new 0 0 512 512;" xml:space="preserve" width="512" height="512">
<g>
	<circle style="fill:#FEDB41;" cx="256" cy="256" r="256"/>
	<path style="fill:#FEA832;" d="M326.07,502.292c100.259-28.469,175.44-116.51,184.903-223.435L409.59,177.475l-49.286-20.517   l-10.731-10.721l-218.232,66.886l39.453,40.208l-8.369,8.369l-52.282,18.499l30.832,30v6.998L326.07,502.292z"/>
	<g>
		<path style="fill:#E61E15;" d="M261.187,374.243c-4.924,0-9.723-1.687-13.621-4.87c-5.041-4.116-7.932-10.209-7.932-16.717v-28.06    c0-11.9,9.682-21.582,21.582-21.582h65.979c11.9,0,21.582,9.682,21.582,21.582v14.595c0,10.212-7.262,19.105-17.267,21.147    l-65.979,13.465C264.086,374.098,262.631,374.243,261.187,374.243z"/>
		<path style="fill:#C91B10;" d="M348.779,324.596c0-11.9-9.682-21.582-21.582-21.582h-65.979c-11.9,0-21.582,9.682-21.582,21.582    v14.033h109.144V324.596z"/>
		<path style="fill:#FF4F24;" d="M358.647,355.16c-0.867,0-1.736-0.04-2.609-0.122c-8.251-0.771-15.663-5.14-20.335-11.985    l-16.273-23.841c-7.514-11.009-6.127-25.839,3.298-35.264l8.835-8.835c9.425-9.425,24.254-10.812,35.264-3.298l23.841,16.273    c6.845,4.672,11.213,12.085,11.985,20.336c0.772,8.251-2.147,16.344-8.007,22.204l-16.403,16.403    C373.002,352.272,365.975,355.16,358.647,355.16z"/>
		<path style="fill:#FD3019;" d="M383.072,282.903l-16.245-11.088c-11.01-7.513-25.839-6.127-35.264,3.298l-8.835,8.835    c-9.425,9.424-10.812,24.254-3.298,35.264l11.088,16.245L383.072,282.903z"/>
		<path style="fill:#E61E15;" d="M398.121,294.968c-1.428,0-2.864-0.11-4.296-0.334l-41.931-6.552    c-13.597-2.125-23.465-13.655-23.465-27.416v-11.498c0-13.761,9.868-25.291,23.464-27.416l41.931-6.552    c8.023-1.25,16.159,1.056,22.327,6.335c6.168,5.279,9.705,12.962,9.705,21.081v24.601c0,8.119-3.538,15.802-9.705,21.081    C411.086,292.635,404.69,294.968,398.121,294.968z"/>
		<path style="fill:#C91B10;" d="M377.144,292.027v-74.22l-25.249,3.945c-13.596,2.125-23.464,13.655-23.464,27.416v11.498    c0,13.761,9.868,25.291,23.465,27.416L377.144,292.027z"/>
		<path style="fill:#FF4F24;" d="M351.936,256.499c-7.169,0-14.307-2.736-19.655-8.085l-7.832-7.832    c-9.702-9.702-10.81-25.295-2.577-36.27l29.898-39.865c4.829-6.439,12.203-10.459,20.231-11.029    c8.031-0.576,15.897,2.365,21.588,8.057l17.798,17.799c5.691,5.691,8.628,13.559,8.058,21.588    c-0.571,8.028-4.591,15.403-11.03,20.232l-39.865,29.899C363.627,254.685,357.771,256.499,351.936,256.499z"/>
		<path style="fill:#FD3019;" d="M339.2,181.209l-17.328,23.103c-8.232,10.975-7.124,26.568,2.577,36.27l7.832,7.832    c5.349,5.349,12.486,8.085,19.655,8.085c5.834,0,11.691-1.814,16.615-5.507l23.104-17.328L339.2,181.209z"/>
		<path style="fill:#E61E15;" d="M323.497,242.584h-18.499c-18.701,0-33.915-15.214-33.915-33.915v-43.164    c0-15.301,12.448-27.748,27.748-27.748h30.832c15.3,0,27.748,12.448,27.748,27.748v43.164    C357.411,227.37,342.197,242.584,323.497,242.584z"/>
		<path style="fill:#C91B10;" d="M271.083,193.254v15.416c0,18.701,15.214,33.915,33.915,33.915h18.499    c18.701,0,33.915-15.214,33.915-33.915v-15.416H271.083z"/>
		<polygon style="fill:#57555C;" points="170.087,280.199 110.143,280.199 110.143,261.7 162.425,261.7 191.164,232.961     204.244,246.041   "/>
		<polygon style="fill:#57555C;" points="203.017,317.196 140.974,317.196 140.974,298.697 191.158,298.697 220.131,235.639     236.941,243.363   "/>
		
			<rect x="233.824" y="252.142" transform="matrix(0.1531 -0.9882 0.9882 0.1531 -41.5289 474.3231)" style="fill:#57555C;" width="44.303" height="18.499"/>
		<path style="fill:#FF4F24;" d="M255.667,248.75H205.72c-52.702,0-95.578-42.876-95.578-95.578v-15.416h145.525    c18.701,0,33.915,15.214,33.915,33.915v43.164C289.582,233.536,274.368,248.75,255.667,248.75z"/>
		<circle style="fill:#FCBF27;" cx="174.889" cy="184.004" r="9.249"/>
		<path style="fill:#FD3019;" d="M118.965,193.254c15.184,32.735,48.359,55.497,86.755,55.497h49.947    c18.701,0,33.915-15.214,33.915-33.915v-21.582H118.965z"/>
	</g>
</g>















</svg>
