<?xml version="1.0" encoding="iso-8859-1"?>
<!-- Generator: Adobe Illustrator 21.0.0, SVG Export Plug-In . SVG Version: 6.00 Build 0)  -->
<svg xmlns="http://www.w3.org/2000/svg" xmlns:xlink="http://www.w3.org/1999/xlink" version="1.1" id="Capa_1" x="0px" y="0px" viewBox="0 0 512 512" style="enable-background:new 0 0 512 512;" xml:space="preserve" width="512" height="512">
<g>
	<circle style="fill:#0FAC00;" cx="256" cy="256" r="256"/>
	<path style="fill:#098100;" d="M90.256,318.154l192.462,192.462c99.031-10.271,181.288-76.996,214.044-167.437L352.715,199.132   l-178.71-4.723c0,0-8.616-4.602-11.255-6.219c-9.976-6.114-33-33.189-33-33.189l-19.423,20.071l-20.07,19.423l34.414,34   l25.15,28.885v41.352L90.256,318.154z"/>
	<g>
		<g>
			<polygon style="fill:#FFDF82;" points="129.75,194.494 90.256,194.494 90.256,175.071 110.327,175.071 110.327,155 129.75,155         "/>
			
				<rect x="119.391" y="180.931" transform="matrix(0.6941 -0.7198 0.7198 0.6941 -99.8181 152.1254)" style="fill:#FFBF7A;" width="19.423" height="25.184"/>
			<path style="fill:#BF6016;" d="M383.545,318.154H149.821v-63.449c0-48.195,39.209-87.404,87.404-87.404h39.494     c58.905,0,106.827,47.922,106.827,106.827V318.154z"/>
			<path style="fill:#994C11;" d="M383.545,274.128c0-58.905-47.922-106.827-106.827-106.827H256v150.853h127.545V274.128z"/>
			<path style="fill:#8C4402;" d="M233.406,318.154c-14.686,0-28.467-5.702-38.871-16.099l-62.9-62.861     c-5.808-5.805-9.007-13.523-9.007-21.733c0-8.133,3.139-15.783,8.844-21.568l0.167-0.169     c10.647-10.641,27.282-12.035,39.554-3.313l33.556,23.848c22.08-13.524,51.217-9.828,69.23,9.786l0,0     c19.498,21.23,19.172,54.202-0.741,75.064c-10.321,10.813-24.229,16.865-39.162,17.041     C233.853,318.153,233.63,318.154,233.406,318.154z"/>
			<path style="fill:#723802;" d="M256,313.333c6.392-2.877,12.239-6.986,17.239-12.224c19.913-20.862,20.239-53.834,0.741-75.064     c-5.209-5.671-11.35-10.003-17.98-12.981V313.333z"/>
		</g>
		<path style="fill:#FCBF27;" d="M375.776,357H136.224v-9.712c0-16.065-13.07-29.135-29.135-29.135v-19.423h297.82v19.423    c-16.065,0-29.135,13.069-29.135,29.135V357z"/>
		<path style="fill:#FEA832;" d="M256,298.731V357h119.776v-9.712c0-16.065,13.069-29.135,29.135-29.135v-19.423H256z"/>
		<rect x="90.256" y="298.731" style="fill:#FEDB41;" width="331.487" height="19.423"/>
		<rect x="256" y="298.731" style="fill:#FCBF27;" width="165.744" height="19.423"/>
	</g>
</g>















</svg>
