<?xml version="1.0" encoding="iso-8859-1"?>
<!-- Generator: Adobe Illustrator 21.0.0, SVG Export Plug-In . SVG Version: 6.00 Build 0)  -->
<svg xmlns="http://www.w3.org/2000/svg" xmlns:xlink="http://www.w3.org/1999/xlink" version="1.1" id="Capa_1" x="0px" y="0px" viewBox="0 0 512 512" style="enable-background:new 0 0 512 512;" xml:space="preserve" width="512" height="512">
<g>
	<circle style="fill:#BF6016;" cx="256" cy="256" r="256"/>
	<path style="fill:#994C11;" d="M506.107,310.773L356.568,161.234l-8.055-6.62l-16.603-16.603l-189.491,76.744l19.317,19L178,379   c0,15.234-54,34.062-54,34.062l96.473,96.472C232.086,511.147,243.943,512,256,512C378.583,512,481.023,425.835,506.107,310.773z"/>
	<g>
		<path style="fill:#FFDF82;" d="M388,413.062H124v-18.419c15.234,0,27.628-12.394,27.628-27.628l0.026-0.698l12.927-169.981    h182.838l12.953,170.679c0,15.234,12.394,27.628,27.628,27.628V413.062z"/>
		<path style="fill:#FFBF7A;" d="M388,394.643c-15.234,0-27.628-12.394-27.628-27.628l-12.953-170.679H256v216.726h132V394.643z"/>
		<path style="fill:#64C37C;" d="M292.837,165.625c-7.075,0.001-14.149-2.693-19.536-8.079c-5.218-5.217-8.092-12.156-8.092-19.536    c0-7.38,2.874-14.318,8.092-19.536c10.771-10.771,28.299-10.772,39.071,0.001l19.537,19.536l-19.537,19.536    C306.988,162.931,299.911,165.625,292.837,165.625z"/>
		<path style="fill:#91DC59;" d="M219.163,165.639c-15.234,0-27.628-12.394-27.628-27.628v-27.628h27.628    c15.234,0,27.628,12.394,27.628,27.628C246.791,153.245,234.397,165.639,219.163,165.639z"/>
		<path style="fill:#C2FC3A;" d="M256,165.625c-7.075,0.001-14.149-2.693-19.536-8.079c-5.218-5.217-8.092-12.156-8.092-19.536    c0-7.38,2.874-14.318,8.092-19.536L256,98.938l19.536,19.537c5.218,5.217,8.092,12.156,8.092,19.536    c0,7.38-2.874,14.318-8.092,19.536C270.15,162.932,263.074,165.625,256,165.625z"/>
		<path style="fill:#91DC59;" d="M275.536,118.475L256,98.938v66.687c7.074-0.001,14.15-2.693,19.536-8.079    c5.218-5.218,8.092-12.156,8.092-19.536C283.628,130.631,280.754,123.692,275.536,118.475z"/>
		<path style="fill:#FEA832;" d="M369.581,214.755H142.419v-21.488c0-25.39,20.656-46.047,46.047-46.047h135.07    c25.39,0,46.047,20.656,46.047,46.047V214.755z"/>
		<path style="fill:#BF6016;" d="M218.678,317.828l-14.307-53.371l88.952-23.845l14.307,53.371L218.678,317.828z"/>
		<path style="fill:#FE9922;" d="M369.581,193.266c0-25.39-20.656-46.047-46.047-46.047H256v67.535h113.581V193.266z"/>
		<polygon style="fill:#994C11;" points="256,307.823 307.63,293.983 293.322,240.612 256,250.617   "/>
	</g>
</g>















</svg>
