<?xml version="1.0" encoding="iso-8859-1"?>
<!-- Generator: Adobe Illustrator 21.0.0, SVG Export Plug-In . SVG Version: 6.00 Build 0)  -->
<svg xmlns="http://www.w3.org/2000/svg" xmlns:xlink="http://www.w3.org/1999/xlink" version="1.1" id="Capa_1" x="0px" y="0px" viewBox="0 0 512 512" style="enable-background:new 0 0 512 512;" xml:space="preserve" width="512" height="512">
<g>
	<circle style="fill:#0FAC00;" cx="256" cy="256" r="256"/>
	<path style="fill:#098100;" d="M503.574,321.334L378.126,195.886l-46.148-32.781L317.07,148.2l-149.089,14.261l12.086,11.676   l-2.483,22.948l43.81,43.696L109.768,346.764l2.19,2.18l-10.661,17.123l145.761,145.76c2.97,0.102,5.948,0.172,8.943,0.172   C374.803,512,474.692,431.068,503.574,321.334z"/>
	<g>
		<path style="fill:#FD3019;" d="M135.92,375.669l-9.6-15.419l-9.6,15.419l-15.423-9.602l12.171-19.548    c2.783-4.469,7.587-7.138,12.852-7.138c5.265,0,10.07,2.668,12.853,7.138l12.171,19.548L135.92,375.669z"/>
		<path style="fill:#BF6016;" d="M131.004,355.559c-7.936,0-15.591-3.151-21.236-8.795c-10.532-10.532-11.721-27.405-2.768-39.248    c17.594-23.274,38.316-43.997,61.592-61.592c11.844-8.954,28.717-7.764,39.248,2.768h0c6.071,6.071,9.257,14.469,8.74,23.041    c-0.515,8.541-4.666,16.464-11.39,21.737c-18.835,14.77-35.875,31.81-50.645,50.645c-5.273,6.724-13.196,10.876-21.738,11.391    C132.206,355.541,131.604,355.559,131.004,355.559z"/>
		<path style="fill:#994C11;" d="M207.841,248.691c-10.531-10.532-27.404-11.722-39.248-2.768    c-11.638,8.798-22.637,18.377-32.926,28.666l42.678,42.678c8.461-8.461,17.429-16.413,26.847-23.798    c6.724-5.273,10.875-13.196,11.39-21.737C217.098,263.16,213.912,254.762,207.841,248.691L207.841,248.691z"/>
		<path style="fill:#FEA832;" d="M284.101,355.559c-0.601,0-1.202-0.018-1.805-0.054c-8.542-0.515-16.465-4.667-21.738-11.391    c-14.77-18.835-31.81-35.875-50.645-50.645c-6.724-5.273-10.876-13.196-11.391-21.737c-0.517-8.571,2.669-16.969,8.74-23.041h0    c10.531-10.532,27.405-11.722,39.248-2.768c23.276,17.596,43.998,38.318,61.592,61.593c8.953,11.843,7.764,28.716-2.768,39.248    C299.692,352.408,292.036,355.559,284.101,355.559z"/>
		<path style="fill:#FE9922;" d="M308.104,307.516c-8.797-11.638-18.376-22.637-28.666-32.927l-42.678,42.678    c8.46,8.461,16.413,17.429,23.798,26.847c5.273,6.724,13.196,10.876,21.737,11.391c0.603,0.036,1.204,0.054,1.805,0.054    c7.935,0,15.592-3.151,21.236-8.795C315.868,336.232,317.058,319.359,308.104,307.516z"/>
		<path style="fill:#BF6016;" d="M325.428,370.663c-7.747,0-15.469-2.966-21.268-8.766h0c-6.071-6.071-9.257-14.469-8.74-23.041    c0.515-8.541,4.666-16.464,11.39-21.737c18.836-14.77,35.875-31.81,50.645-50.645c5.273-6.724,13.196-10.876,21.738-11.391    c8.571-0.513,16.969,2.67,23.04,8.741c10.532,10.532,11.721,27.405,2.767,39.248c-17.594,23.274-38.316,43.997-61.592,61.592    C338.087,368.688,331.749,370.663,325.428,370.663z"/>
		<path style="fill:#FF4F24;" d="M177.583,197.084l-9.603-15.423l15.419-9.6l-15.419-9.6l9.603-15.423l19.547,12.171    c4.47,2.783,7.138,7.588,7.138,12.853s-2.668,10.07-7.138,12.853L177.583,197.084z"/>
		<path style="fill:#BF6016;" d="M295.585,199.31c-1.195,0-2.394-0.072-3.593-0.216c-23.883-2.892-48.102-2.892-71.985,0    c-8.512,1.026-17.075-1.645-23.499-7.339c-6.452-5.718-10.153-13.944-10.153-22.568c0-14.952,11.127-27.774,25.883-29.827    c29.038-4.038,58.484-4.038,87.522,0c14.756,2.053,25.883,14.875,25.883,29.827c0,8.624-3.701,16.849-10.153,22.568    C309.972,196.646,302.872,199.31,295.585,199.31z"/>
		<path style="fill:#FEA832;" d="M382.168,273.197c-0.577,0-1.155-0.017-1.734-0.053c-8.209-0.494-15.824-4.485-20.892-10.948    c-13.919-17.75-29.977-33.808-47.728-47.727c-6.462-5.068-10.452-12.682-10.947-20.891c-0.496-8.237,2.565-16.308,8.399-22.142    c10.122-10.122,26.338-11.266,37.72-2.658c22.011,16.639,41.609,36.236,58.248,58.247v0.001    c8.605,11.383,7.462,27.599-2.659,37.719C397.152,270.169,389.794,273.197,382.168,273.197z"/>
		<path style="fill:#994C11;" d="M299.761,139.359c-14.519-2.019-29.14-3.029-43.761-3.029v60.594    c12.025,0,24.051,0.723,35.992,2.169c1.199,0.145,2.398,0.216,3.593,0.216c7.286,0,14.387-2.664,19.907-7.556    c6.452-5.718,10.153-13.944,10.153-22.568C325.645,154.234,314.517,141.412,299.761,139.359z"/>
		<path style="fill:#FE9922;" d="M405.235,227.025L405.235,227.025c-8.32-11.006-17.379-21.408-27.11-31.139l-41.01,41.01    c7.973,7.973,15.468,16.425,22.427,25.3c5.067,6.463,12.682,10.453,20.892,10.948c0.58,0.035,1.157,0.053,1.734,0.053    c7.626,0,14.984-3.028,20.408-8.452C412.697,254.624,413.84,238.408,405.235,227.025z"/>
		<path style="fill:#994C11;" d="M379.192,255.083c-8.542,0.515-16.465,4.666-21.738,11.391    c-7.385,9.418-15.338,18.387-23.798,26.847l42.678,42.678c10.29-10.289,19.869-21.289,28.666-32.926    c8.954-11.843,7.764-28.716-2.767-39.248C396.162,257.753,387.763,254.571,379.192,255.083z"/>
	</g>
</g>















</svg>
