<?xml version="1.0" encoding="iso-8859-1"?>
<!-- Generator: Adobe Illustrator 21.0.0, SVG Export Plug-In . SVG Version: 6.00 Build 0)  -->
<svg xmlns="http://www.w3.org/2000/svg" xmlns:xlink="http://www.w3.org/1999/xlink" version="1.1" id="Capa_1" x="0px" y="0px" viewBox="0 0 512 512" style="enable-background:new 0 0 512 512;" xml:space="preserve" width="512" height="512">
<g>
	<circle style="fill:#BF6016;" cx="256" cy="256" r="256"/>
	<path style="fill:#994C11;" d="M286.71,510.16c112.298-13.428,202.255-99.54,221.476-209.955L380.765,172.784L97.893,318.214   L129.55,353L286.71,510.16z"/>
	<g>
		<path style="fill:#E5E5E5;" d="M163.573,353h-34.021v-10.034c0-13.648-11.104-24.752-24.752-24.752h-6.908l-2.466-6.453    c-14.231-37.237-14.226-74.773,0.016-111.563l2.482-6.412h6.876c13.648,0,24.752-11.103,24.752-24.752V159h34.021l-2.837,12.291    c-12.971,56.209-12.971,113.209,0,169.418L163.573,353z"/>
		<path style="fill:#79D60B;" d="M181.948,353h-52.217l-2.653-5.946c-26.956-60.421-26.956-121.692,0-182.108l2.653-5.946h38.333    l54.804,19.343l30.531-12.992l41.71,6.838l53.195-12.467v191.45l-59.31-4.809l-50.223,6.366l-17.838-12.105L181.948,353z"/>
		<path style="fill:#D9D9D9;" d="M151.006,256H84.758c0.021,18.575,3.575,37.205,10.667,55.761l2.466,6.453h6.908    c13.648,0,24.752,11.103,24.752,24.752V353h34.021l-2.837-12.291C154.249,312.605,151.006,284.302,151.006,256z"/>
		<path style="fill:#33BC00;" d="M106.861,256c0,30.422,6.739,60.844,20.217,91.054l2.653,5.946h52.217l38.985-12.377l17.838,12.105    l50.223-6.366l59.31,4.809V256H106.861z"/>
		<path style="fill:#C8C6CE;" d="M350.98,353c-16.373,0-31.27-10.92-41.947-30.749c-9.618-17.862-14.915-41.39-14.915-66.251    s5.297-48.389,14.915-66.251C319.71,169.92,334.607,159,350.98,159s31.27,10.92,41.947,30.749    c9.618,17.862,14.915,41.39,14.915,66.251s-5.297,48.389-14.915,66.251C382.25,342.08,367.353,353,350.98,353z"/>
		<path style="fill:#ADACB3;" d="M309.033,322.251C319.71,342.08,334.607,353,350.98,353s31.27-10.92,41.947-30.749    c9.618-17.862,14.915-41.39,14.915-66.251H294.118C294.118,280.861,299.415,304.389,309.033,322.251z"/>
		<path style="fill:#E5E5E5;" d="M350.98,353c-16.373,0-31.27-10.92-41.947-30.749c-9.618-17.862-14.915-41.39-14.915-66.251    s5.297-48.389,14.915-66.251C319.71,169.92,334.607,159,350.98,159s31.27,10.92,41.947,30.749    c9.618,17.862,14.915,41.39,14.915,66.251s-5.297,48.389-14.915,66.251C382.25,342.08,367.353,353,350.98,353z M350.98,179.069    c-17.403,0-36.793,31.594-36.793,76.931c0,21.598,4.445,41.748,12.516,56.737c6.91,12.834,15.759,20.194,24.277,20.194    c17.403,0,36.793-31.594,36.793-76.931c0-21.598-4.445-41.748-12.516-56.737C368.347,186.43,359.498,179.069,350.98,179.069z"/>
		<path style="fill:#57555C;" d="M352.318,241.283c-6.281,0-11.372,10.782-11.372,24.083v16.055    c0,13.301,5.092,24.083,11.372,24.083c6.281,0,11.372-10.782,11.372-24.083v-16.055    C363.69,252.065,358.599,241.283,352.318,241.283z"/>
		<path style="fill:#D9D9D9;" d="M350.98,353c16.373,0,31.27-10.92,41.947-30.749c9.618-17.862,14.915-41.39,14.915-66.251h-20.069    c0,45.337-19.391,76.931-36.793,76.931c-8.518,0-17.367-7.361-24.277-20.194c-8.071-14.989-12.516-35.139-12.516-56.737h-20.069    c0,24.861,5.297,48.389,14.915,66.251C319.71,342.08,334.607,353,350.98,353z"/>
		<path style="fill:#3C3A41;" d="M340.945,265.366v16.055c0,13.301,5.092,24.083,11.372,24.083s11.372-10.782,11.372-24.083v-16.055    c0-3.322-0.318-6.486-0.892-9.366h-20.961C341.263,258.879,340.945,262.044,340.945,265.366z"/>
		<path style="fill:#C2FC3A;" d="M403.821,308.617c-0.857,0-1.718-0.048-2.579-0.143l-45.35-5.039v-60.084l45.35-5.039    c6.611-0.736,13.244,1.389,18.201,5.824c4.956,4.436,7.799,10.795,7.799,17.447v23.62c0,6.652-2.842,13.011-7.799,17.447    C415.132,306.508,409.551,308.616,403.821,308.617z"/>
		<path style="fill:#91DC59;" d="M355.893,303.435l45.35,5.039c0.861,0.095,1.721,0.143,2.579,0.143    c5.73-0.001,11.311-2.109,15.622-5.967c4.956-4.436,7.799-10.795,7.799-17.447v-23.62c0-1.898-0.239-3.77-0.685-5.583h-70.664    V303.435z"/>
	</g>
</g>















</svg>
