<?xml version="1.0" encoding="iso-8859-1"?>
<!-- Generator: Adobe Illustrator 21.0.0, SVG Export Plug-In . SVG Version: 6.00 Build 0)  -->
<svg xmlns="http://www.w3.org/2000/svg" xmlns:xlink="http://www.w3.org/1999/xlink" version="1.1" id="Capa_1" x="0px" y="0px" viewBox="0 0 512 512" style="enable-background:new 0 0 512 512;" xml:space="preserve" width="512" height="512">
<g>
	<circle style="fill:#0FAC00;" cx="256" cy="256" r="256"/>
	<path style="fill:#098100;" d="M510.23,286.096l-93.463-93.463l-36.937-16.708l-20.514-20.489L96.433,269.65l17.06,17.064   l8.998,71.117l153.404,153.404C397.995,501.851,496.092,406.805,510.23,286.096z"/>
	<g>
		<path style="fill:#FFDF82;" d="M256.298,217.134c-0.074,0-0.143,0-0.217,0c-35.488-0.024-71.19-6.036-109.146-18.381l-7.123-2.316    v-9.422c0-16.029,8.597-31.011,22.435-39.098l0.322-0.189c14.092-8.235,31.602-8.235,45.696,0.002    c7.675,4.485,17.21,4.485,24.885,0c14.094-8.237,31.605-8.237,45.698,0c7.675,4.485,17.21,4.484,24.885,0    c14.094-8.237,31.605-8.236,45.698,0l0.317,0.185c13.841,8.089,22.438,23.07,22.438,39.1v9.396l-7.091,2.332    C327.473,211.117,291.879,217.134,256.298,217.134z"/>
		<path style="fill:#FFBF7A;" d="M256,217.133c0.027,0,0.055,0.001,0.082,0.001c0.074,0,0.143,0,0.217,0    c35.58,0,71.175-6.017,108.799-18.391l7.091-2.332v-9.396c0-16.029-8.597-31.011-22.438-39.1l-0.317-0.185    c-14.093-8.236-31.604-8.237-45.698,0c-7.675,4.484-17.21,4.485-24.885,0c-7.047-4.118-14.948-6.177-22.849-6.177V217.133z"/>
		<path style="fill:#FF4F24;" d="M256,312.013c-50.371,0-99.062-10.787-144.722-32.061C92.277,271.1,80,251.703,80,230.537    c0-17.657,8.56-34.314,22.899-44.557c14.346-10.249,32.101-12.863,48.712-7.168c33.663,11.536,68.785,17.386,104.389,17.386    s70.726-5.85,104.389-17.386l3.344,9.755l-3.344-9.755c16.613-5.693,34.367-3.08,48.712,7.168    C423.44,196.223,432,212.88,432,230.537c0,21.166-12.278,40.563-31.278,49.415C355.062,301.226,306.371,312.013,256,312.013z"/>
		<path style="fill:#FD3019;" d="M400.722,279.953c19-8.852,31.278-28.249,31.278-49.415c0-17.657-8.56-34.314-22.899-44.557    c-14.346-10.248-32.099-12.861-48.712-7.168c-33.663,11.536-68.784,17.386-104.389,17.386v115.816    C306.371,312.013,355.062,301.226,400.722,279.953z"/>
		<path style="fill:#FCBF27;" d="M358.438,370.447H153.563c-24.641,0-44.688-20.047-44.688-44.688v-13.75    c0-39.805,32.383-72.187,72.188-72.187h149.875c39.805,0,72.188,32.383,72.188,72.187v13.75    C403.125,350.4,383.078,370.447,358.438,370.447z"/>
		<path style="fill:#FEA832;" d="M330.938,239.822H256v130.625h102.438c24.641,0,44.688-20.047,44.688-44.688v-13.75    C403.125,272.205,370.742,239.822,330.938,239.822z"/>
	</g>
</g>















</svg>
