<?xml version="1.0" encoding="iso-8859-1"?>
<!-- Generator: Adobe Illustrator 21.0.0, SVG Export Plug-In . SVG Version: 6.00 Build 0)  -->
<svg xmlns="http://www.w3.org/2000/svg" xmlns:xlink="http://www.w3.org/1999/xlink" version="1.1" id="Capa_1" x="0px" y="0px" viewBox="0 0 512 512" style="enable-background:new 0 0 512 512;" xml:space="preserve" width="512" height="512">
<g>
	<circle style="fill:#FEDB41;" cx="256" cy="256" r="256"/>
	<path style="fill:#FEA832;" d="M512,256c0-5.938-0.22-11.824-0.617-17.662L381.613,108.569l-76.455,59.281l-44.518-44.625   l-2.323,52.906c0,0,5.445,5.457,5.673,5.683c1.642,2.294,2.587,4.827,2.755,7.44l-65.853-66.029l-2.323,52.906   c0,0,5.445,5.457,5.672,5.683C204.914,182.752,215,190,215,190l-1.114,27.667c0.034-0.028,20.729,20.673,20.729,20.673   l-66.394,83.206c0,0,21.129,21.139,21.196,21.207l-34.148,78.933l90.077,90.077C248.881,511.907,252.429,512,256,512   C397.385,512,512,397.385,512,256z"/>
	<g>
		<rect x="187.021" y="367.34" style="fill:#C8C6CE;" width="100.484" height="20.368"/>
		<rect x="237.263" y="367.34" style="fill:#ADACB3;" width="50.242" height="20.368"/>
		
			<rect x="277.661" y="325.711" transform="matrix(0.9178 -0.3971 0.3971 0.9178 -126.3716 145.3545)" style="fill:#3C3A41;" width="20.368" height="104.306"/>
		
			<rect x="133.171" y="367.68" transform="matrix(0.3971 -0.9178 0.9178 0.3971 -235.0621 397.9109)" style="fill:#57555C;" width="104.306" height="20.368"/>
		<path style="fill:#E5E5E5;" d="M318.737,258.709h-13.579V82.182h13.579c48.669,0,88.263,39.594,88.263,88.263    S367.406,258.709,318.737,258.709z"/>
		<path style="fill:#D9D9D9;" d="M305.158,258.709h13.579c48.669,0,88.263-39.594,88.263-88.263H305.158V258.709z"/>
		<path style="fill:#C8C6CE;" d="M261.026,340.182H213.5c-35.565,0-64.5-28.935-64.5-64.5V238.34h176.526v37.342    C325.526,311.248,296.591,340.182,261.026,340.182z"/>
		<path style="fill:#ADACB3;" d="M237.263,238.34v101.842h23.763c35.565,0,64.5-28.935,64.5-64.5V238.34H237.263z"/>
		<path style="fill:#FE9922;" d="M315.342,279.077c-16.847,0-30.553-13.706-30.553-30.553s13.706-30.553,30.553-30.553    s30.553,13.706,30.553,30.553S332.189,279.077,315.342,279.077z"/>
		<path style="fill:#FD3019;" d="M273.634,217.667l-12.994-15.685c3.971-3.29,6.158-7.511,6.158-11.886    c0-4.36-2.176-8.564-6.128-11.838c-8.6-7.124-13.532-17.163-13.532-27.541c0-10.516,4.795-20.28,13.502-27.493l12.994,15.685    c-3.952,3.274-6.128,7.467-6.128,11.808c0,4.356,2.187,8.566,6.158,11.856c8.581,7.108,13.502,17.14,13.502,27.523    C287.166,200.494,282.233,210.543,273.634,217.667z"/>
		<path style="fill:#FF4F24;" d="M213.887,217.667l-12.994-15.685c3.971-3.29,6.158-7.511,6.158-11.886    c0-4.36-2.176-8.564-6.128-11.838c-8.6-7.124-13.532-17.163-13.532-27.541c0-10.516,4.795-20.28,13.502-27.493l12.994,15.685    c-3.952,3.274-6.128,7.467-6.128,11.808c0,4.356,2.187,8.566,6.158,11.856c8.581,7.108,13.502,17.14,13.502,27.523    C227.418,200.494,222.486,210.543,213.887,217.667z"/>
	</g>
</g>















</svg>
