<?xml version="1.0" encoding="iso-8859-1"?>
<!-- Generator: Adobe Illustrator 21.0.0, SVG Export Plug-In . SVG Version: 6.00 Build 0)  -->
<svg xmlns="http://www.w3.org/2000/svg" xmlns:xlink="http://www.w3.org/1999/xlink" version="1.1" id="Capa_1" x="0px" y="0px" viewBox="0 0 512 512" style="enable-background:new 0 0 512 512;" xml:space="preserve" width="512" height="512">
<g>
	<circle style="fill:#FD3019;" cx="256" cy="256" r="256"/>
	<path style="fill:#C91B10;" d="M511.93,261.522L359.538,109.13l-57.781,91.555l-92-92L116,322.574l45.451,45l0.084,39.51   l104.71,104.695C401.049,506.47,509.063,396.941,511.93,261.522z"/>
	<g>
		<g>
			<path style="fill:#C8C6CE;" d="M358.044,247.907h-56v-56h56V247.907z"/>
			<rect x="330.044" y="191.907" style="fill:#ADACB3;" width="28" height="56"/>
			<path style="fill:#E5E5E5;" d="M396,322.574H265.333v-46.667c0-25.732,20.934-46.667,46.667-46.667h37.333     c25.732,0,46.667,20.934,46.667,46.667V322.574z"/>
			<path style="fill:#D9D9D9;" d="M396,275.907c0-25.732-20.934-46.667-46.667-46.667h-18.667v93.333H396V275.907z"/>
			<path style="fill:#57555C;" d="M358.667,353.685h-56v-59.111c0-15.44,12.561-28,28-28c15.44,0,28,12.56,28,28V353.685z"/>
			<path style="fill:#BF6016;" d="M356.294,210.574h-52.598l-12.888-65.73c-2.331-11.886,0.747-24.067,8.444-33.42     s19.059-14.717,31.171-14.717c12.211,0,23.631,5.435,31.331,14.913c7.7,9.477,10.683,21.768,8.183,33.721L356.294,210.574z"/>
			<path style="fill:#994C11;" d="M361.755,111.62c-7.7-9.477-19.119-14.912-31.33-14.913v113.867h25.87l13.643-65.233     C372.438,133.388,369.455,121.097,361.755,111.62z"/>
			<path style="fill:#3C3A41;" d="M358.667,294.574c0-15.44-12.56-28-28-28v87.111h28V294.574z"/>
		</g>
		<g>
			<path style="fill:#FCBF27;" d="M181.333,415.271c-7.171,0.001-14.34-2.729-19.799-8.188c-5.288-5.288-8.201-12.319-8.201-19.799     s2.913-14.511,8.201-19.799l19.799-19.799l19.799,19.8c5.288,5.288,8.201,12.319,8.201,19.799s-2.913,14.511-8.201,19.799     C195.674,412.542,188.503,415.271,181.333,415.271z"/>
			<path style="fill:#FEA832;" d="M201.132,367.486l-19.799-19.8v67.585c7.17-0.001,14.341-2.729,19.799-8.187     c5.288-5.288,8.201-12.32,8.201-19.799S206.42,372.774,201.132,367.486z"/>
		</g>
		<g>
			<path style="fill:#C8C6CE;" d="M208.711,247.907h-56v-56h56V247.907z"/>
			<rect x="180.711" y="191.907" style="fill:#ADACB3;" width="28" height="56"/>
			<path style="fill:#E5E5E5;" d="M246.667,322.574H116v-46.667c0-25.732,20.934-46.667,46.667-46.667H200     c25.732,0,46.667,20.934,46.667,46.667V322.574z"/>
			<path style="fill:#D9D9D9;" d="M246.667,275.907c0-25.732-20.934-46.667-46.667-46.667h-18.667v93.333h65.333V275.907z"/>
			<path style="fill:#57555C;" d="M209.333,353.685h-56v-59.111c0-15.44,12.561-28,28-28s28,12.56,28,28V353.685z"/>
			<path style="fill:#BF6016;" d="M206.961,210.574h-52.598l-12.888-65.73c-2.331-11.886,0.747-24.067,8.444-33.42     s19.059-14.717,31.171-14.717c12.211,0,23.631,5.435,31.331,14.913s10.683,21.768,8.183,33.721L206.961,210.574z"/>
			<path style="fill:#994C11;" d="M212.421,111.62c-7.7-9.477-19.119-14.912-31.33-14.913v113.867h25.87l13.643-65.233     C223.104,133.388,220.121,121.097,212.421,111.62z"/>
			<path style="fill:#3C3A41;" d="M209.333,294.574c0-15.44-12.561-28-28-28v87.111h28V294.574z"/>
		</g>
	</g>
</g>















</svg>
